<?xml version="1.0" standalone="no"?>
<!DOCTYPE svg PUBLIC "-//W3C//DTD SVG 20010904//EN"
 "http://www.w3.org/TR/2001/REC-SVG-20010904/DTD/svg10.dtd">
<svg version="1.0" xmlns="http://www.w3.org/2000/svg"
 width="2084.000000pt" height="2084.000000pt" viewBox="0 0 2084.000000 2084.000000"
 preserveAspectRatio="xMidYMid meet">
<metadata>
Created by potrace 1.14, written by Peter Selinger 2001-2017
</metadata>
<g transform="translate(0.000000,2084.000000) scale(0.100000,-0.100000)"
fill="#000000" stroke="none">
<path d="M10090 20833 c-1300 -40 -2576 -322 -3770 -831 -805 -344 -1610 -820
-2309 -1366 -742 -578 -1432 -1287 -1985 -2040 -1683 -2289 -2352 -5121 -1876
-7943 363 -2150 1426 -4168 3004 -5700 1712 -1663 3928 -2687 6281 -2902 633
-58 1292 -60 1915 -5 1631 143 3206 672 4600 1547 1395 875 2580 2087 3422
3502 222 374 469 858 631 1240 481 1135 746 2280 817 3535 13 228 13 865 0
1100 -88 1611 -526 3133 -1300 4520 -1260 2257 -3309 3966 -5757 4800 -1149
392 -2433 582 -3673 543z m918 -3232 c284 -55 527 -181 734 -380 223 -213 360
-460 425 -761 33 -150 37 -405 10 -545 -64 -327 -207 -591 -441 -812 -128
-122 -315 -240 -468 -298 l-48 -18 0 -1006 0 -1006 382 4 c434 4 536 -4 733
-54 271 -70 486 -182 703 -368 117 -100 257 -265 337 -398 l37 -60 366 2 c397
1 468 -5 661 -57 593 -160 1058 -634 1210 -1232 42 -163 50 -266 56 -767 3
-264 13 -1018 21 -1675 18 -1318 16 -1503 -16 -1655 -69 -326 -219 -610 -444
-843 -265 -273 -572 -438 -943 -508 -132 -24 -660 -32 -2128 -33 -704 -1
-1946 -8 -2760 -16 -814 -9 -1775 -16 -2135 -18 -648 -2 -656 -2 -768 21 -656
133 -1152 587 -1335 1222 -37 129 -57 260 -62 420 -6 150 -34 3136 -38 3960
-2 503 0 533 53 736 79 299 221 545 445 769 246 246 528 399 869 471 111 23
152 26 486 34 201 5 386 9 412 9 l48 1 2 1055 3 1054 752 -1047 c414 -576 802
-1116 863 -1199 l110 -153 -380 0 -380 0 0 -232 c0 -281 14 -366 83 -512 56
-118 93 -173 176 -260 85 -88 166 -145 282 -200 148 -69 207 -81 399 -80 150
0 173 3 253 27 320 98 554 338 649 663 l23 79 3 1425 2 1426 -77 32 c-174 71
-323 172 -473 322 -165 164 -275 343 -350 569 -53 158 -73 286 -73 456 0 170
20 298 73 456 76 230 182 402 355 574 241 241 534 383 875 425 106 13 312 3
428 -19z m-900 -4994 l2 -167 -396 2 -397 3 -113 160 c-62 88 -114 163 -114
168 0 4 228 6 508 5 l507 -3 3 -168z"/>
<path d="M10575 17259 c-269 -39 -528 -188 -700 -402 -80 -99 -177 -289 -205
-402 -101 -393 6 -789 288 -1069 168 -167 347 -259 625 -320 l28 -7 -4 -1567
c-3 -1731 1 -1602 -68 -1809 -66 -198 -172 -364 -328 -516 -235 -228 -515
-349 -837 -364 -225 -11 -419 29 -619 126 -368 179 -613 490 -711 906 -14 58
-18 146 -21 518 l-4 447 211 0 c116 0 210 4 208 8 -1 5 -154 219 -338 475
l-335 467 -3 -833 c-3 -860 1 -992 37 -1157 62 -283 224 -574 433 -777 154
-150 386 -291 591 -358 341 -111 667 -107 1011 12 521 181 913 645 1007 1191
18 110 19 175 19 1671 l0 1558 123 31 c448 116 766 453 842 896 92 537 -230
1064 -755 1234 -144 47 -341 63 -495 41z m302 -753 c66 -30 147 -105 177 -165
10 -18 24 -64 32 -103 35 -168 -54 -342 -214 -416 -49 -23 -71 -27 -152 -27
-88 0 -101 3 -162 33 -83 41 -158 119 -189 200 -34 85 -33 207 3 284 35 76 72
121 134 164 72 50 124 64 224 61 69 -2 97 -8 147 -31z"/>
<path d="M11220 12203 c0 -131 -5 -277 -10 -323 -42 -332 -167 -654 -356 -910
l-46 -63 458 6 c253 4 812 10 1243 14 l784 6 -6 151 c-14 389 -147 700 -411
961 -191 189 -407 307 -681 372 -58 14 -146 17 -522 20 l-453 4 0 -238z"/>
<path d="M6750 12389 c-133 -6 -187 -13 -281 -37 -422 -108 -757 -394 -930
-793 -76 -176 -109 -347 -109 -566 l0 -136 648 6 c356 4 897 10 1203 14 l557
6 -64 86 c-35 47 -87 128 -116 179 -40 71 -56 91 -68 85 -8 -4 -99 -9 -203
-11 -177 -3 -190 -2 -233 18 -28 14 -56 38 -72 62 -24 38 -27 52 -35 202 -10
181 -2 239 39 293 41 54 84 69 214 77 63 4 115 8 115 9 0 1 -1 118 -3 260 l-3
257 -247 -2 c-136 0 -321 -5 -412 -9z m-107 -510 c49 -13 105 -63 128 -114 16
-34 19 -67 19 -208 0 -179 -7 -216 -53 -266 -48 -52 -87 -61 -280 -61 -199 0
-233 9 -280 72 -40 55 -47 92 -47 262 0 134 3 168 19 201 23 51 81 102 123
109 92 16 322 19 371 5z"/>
<path d="M13564 11565 c-7 -4 -4 -29 8 -78 46 -178 50 -236 57 -849 3 -322 8
-589 11 -591 3 -3 358 -2 790 3 432 5 820 9 863 10 l78 0 -6 138 c-12 250 -53
425 -142 602 -69 136 -135 231 -237 338 -199 208 -437 342 -721 404 -76 17
-137 21 -390 24 -165 2 -305 1 -311 -1z"/>
<path d="M11794 10583 l-1332 -14 -98 -66 c-191 -128 -430 -227 -674 -278
-170 -36 -459 -46 -630 -21 -287 42 -551 140 -785 291 l-83 53 -909 -9 c-499
-5 -1120 -12 -1380 -15 l-472 -6 5 -287 c3 -157 12 -1018 20 -1913 16 -1746
15 -1716 69 -1903 69 -236 187 -428 372 -606 111 -106 216 -180 348 -244 189
-92 327 -125 561 -132 225 -7 4772 34 5109 46 224 9 274 13 361 35 262 65 484
194 672 390 209 219 336 489 372 788 8 71 -14 3182 -26 3676 l-6 232 -82 -1
c-44 -1 -680 -8 -1412 -16z"/>
<path d="M14160 9710 l-515 -5 -3 -125 c-1 -69 4 -721 11 -1450 8 -775 10
-1369 5 -1430 -38 -465 -287 -919 -663 -1208 l-30 -23 600 5 c658 5 696 8 883
67 208 67 394 181 552 339 202 201 324 430 382 715 25 121 25 233 3 1785 -8
564 -15 1096 -15 1183 l0 157 -347 -2 c-192 -2 -580 -5 -863 -8z"/>
</g>
</svg>
