<?xml version="1.0" standalone="no"?>
<!DOCTYPE svg PUBLIC "-//W3C//DTD SVG 20010904//EN"
 "http://www.w3.org/TR/2001/REC-SVG-20010904/DTD/svg10.dtd">
<svg version="1.0" xmlns="http://www.w3.org/2000/svg"
 width="2084.000000pt" height="2084.000000pt" viewBox="0 0 2084.000000 2084.000000"
 preserveAspectRatio="xMidYMid meet">
<metadata>
Created by potrace 1.14, written by Peter Selinger 2001-2017
</metadata>
<g transform="translate(0.000000,2084.000000) scale(0.100000,-0.100000)"
fill="#000000" stroke="none">
<path d="M10058 20835 c-2 -1 -68 -5 -148 -9 -80 -3 -174 -8 -210 -11 -36 -3
-94 -7 -130 -10 -80 -6 -366 -34 -400 -40 -14 -2 -50 -7 -80 -10 -129 -15
-412 -59 -515 -79 -11 -2 -40 -7 -65 -12 -25 -4 -47 -8 -50 -9 -3 -1 -25 -5
-50 -9 -75 -14 -80 -15 -204 -42 -136 -29 -537 -128 -606 -149 -25 -8 -121
-37 -215 -65 -168 -51 -333 -104 -411 -133 -21 -8 -86 -32 -144 -52 -58 -21
-118 -43 -135 -50 -16 -7 -46 -18 -65 -26 -44 -16 -335 -135 -375 -154 -16 -7
-57 -25 -90 -40 -752 -332 -1545 -814 -2220 -1350 -118 -94 -394 -324 -431
-359 -6 -6 -48 -45 -94 -86 -220 -199 -504 -482 -705 -704 -50 -55 -97 -107
-105 -115 -8 -9 -37 -43 -65 -76 -27 -33 -53 -62 -56 -65 -3 -3 -43 -50 -88
-105 -46 -55 -91 -110 -102 -122 -32 -38 -253 -327 -284 -371 -17 -23 -54 -75
-83 -115 -124 -168 -426 -636 -537 -832 -99 -175 -177 -319 -247 -454 -44 -85
-83 -161 -88 -170 -67 -126 -296 -654 -380 -876 -154 -407 -325 -960 -395
-1280 -2 -11 -20 -89 -40 -174 -30 -133 -57 -265 -71 -351 -3 -14 -9 -47 -14
-75 -5 -27 -12 -68 -15 -90 -3 -22 -10 -62 -15 -90 -5 -27 -12 -70 -15 -94 -3
-23 -7 -55 -9 -70 -3 -14 -8 -46 -11 -71 -3 -25 -8 -56 -10 -70 -6 -38 -17
-139 -30 -270 -3 -36 -8 -81 -10 -100 -2 -19 -7 -71 -10 -115 -4 -44 -8 -101
-10 -126 -27 -306 -27 -1208 0 -1479 2 -25 7 -81 10 -125 9 -116 12 -154 19
-210 10 -85 17 -149 21 -180 7 -68 16 -141 20 -165 2 -14 7 -45 10 -70 4 -25
8 -56 10 -70 11 -68 25 -159 30 -195 4 -22 8 -47 10 -55 3 -8 11 -53 20 -100
23 -129 25 -144 30 -160 3 -8 7 -33 11 -55 3 -22 8 -43 10 -46 2 -3 5 -19 8
-35 3 -16 17 -78 31 -139 14 -60 28 -119 30 -129 70 -303 261 -926 357 -1161
15 -38 28 -74 28 -80 1 -5 9 -28 20 -50 11 -22 19 -44 20 -48 0 -9 142 -349
180 -432 164 -356 316 -657 422 -838 15 -26 28 -50 28 -53 0 -2 11 -21 23 -42
13 -20 48 -77 77 -127 90 -154 212 -345 319 -505 36 -52 82 -121 104 -153 41
-62 369 -500 390 -522 7 -7 26 -30 42 -51 78 -101 243 -293 419 -489 81 -91
539 -551 631 -635 44 -40 184 -165 255 -226 26 -23 139 -118 225 -189 283
-235 823 -620 1120 -798 570 -341 932 -526 1465 -749 118 -50 220 -91 225 -93
6 -1 17 -5 25 -8 80 -34 714 -251 760 -261 14 -2 66 -17 115 -31 50 -15 99
-29 109 -31 10 -2 33 -8 50 -13 35 -12 169 -47 206 -55 14 -3 84 -19 155 -36
72 -16 139 -32 150 -34 11 -2 65 -13 120 -25 55 -11 111 -22 125 -25 14 -2 77
-13 140 -25 63 -11 133 -23 155 -26 22 -4 51 -8 65 -10 14 -3 43 -7 65 -10 22
-3 51 -8 65 -10 14 -2 52 -7 85 -11 33 -3 68 -8 79 -10 10 -2 44 -6 75 -9 31
-3 67 -8 81 -10 14 -2 61 -7 105 -11 44 -3 96 -8 115 -10 80 -9 258 -21 450
-31 187 -9 739 -9 945 1 176 8 187 9 475 31 55 5 135 13 200 20 19 3 55 6 80
9 69 7 131 15 310 42 91 14 181 27 200 30 19 2 58 9 86 14 28 6 64 13 80 16
27 4 99 18 154 29 14 3 45 10 70 15 410 82 1040 258 1375 385 33 12 101 37
150 55 50 18 101 37 115 43 14 6 30 11 35 13 11 3 296 121 365 151 353 155
711 336 1030 521 52 30 110 63 127 73 97 55 568 358 607 390 6 5 79 57 161
116 204 146 486 366 650 507 262 226 425 378 643 596 327 329 535 565 895
1020 127 159 502 702 571 825 9 17 24 42 34 57 14 22 57 93 129 213 7 11 16
27 20 35 4 8 30 56 59 105 314 547 629 1270 838 1925 53 167 162 547 171 600
3 14 9 41 15 60 13 44 79 333 86 380 3 19 8 38 10 41 2 4 6 24 10 45 3 22 12
71 19 109 14 68 29 155 40 225 3 19 7 46 10 60 6 31 12 72 19 130 3 25 8 54
10 65 2 12 7 48 11 80 4 33 9 71 11 85 2 14 7 50 9 80 3 30 7 69 9 85 8 51 23
223 31 340 3 44 8 103 10 130 23 265 23 1049 1 1305 -3 25 -7 88 -11 140 -9
129 -14 180 -30 330 -8 75 -14 132 -20 195 -3 33 -8 67 -10 75 -2 8 -7 35 -10
60 -3 25 -8 56 -10 70 -2 14 -11 70 -20 125 -8 55 -17 111 -20 125 -2 14 -14
79 -26 145 -11 66 -22 122 -24 125 -2 3 -6 23 -9 45 -5 33 -63 296 -82 370 -3
11 -7 30 -10 42 -2 12 -25 98 -50 190 -24 93 -47 177 -49 187 -6 24 -10 40
-85 276 -76 238 -222 648 -270 755 -5 11 -43 101 -85 200 -249 584 -550 1138
-928 1705 -66 99 -333 472 -368 515 -10 11 -80 99 -157 195 -77 96 -148 184
-158 195 -11 11 -41 47 -69 80 -187 223 -563 613 -815 845 -62 58 -128 118
-144 134 -17 15 -53 47 -80 70 -26 22 -58 49 -70 60 -11 10 -43 37 -70 60 -27
22 -66 55 -85 72 -20 17 -74 61 -121 98 -47 37 -92 73 -100 79 -8 7 -33 26
-55 42 -22 17 -46 35 -55 42 -16 13 -215 160 -285 211 -264 191 -732 481
-1065 661 -153 83 -494 252 -635 316 -71 32 -136 63 -142 68 -7 5 -13 7 -13 3
0 -4 -18 3 -41 15 -50 25 -263 112 -455 184 -123 47 -536 189 -582 201 -20 5
-88 24 -202 59 -137 41 -544 144 -680 171 -14 2 -45 9 -70 14 -25 5 -56 12
-70 15 -25 5 -138 26 -235 44 -27 6 -70 13 -95 17 -25 3 -54 8 -65 10 -11 2
-40 7 -65 10 -25 3 -47 7 -50 9 -3 2 -34 6 -70 10 -36 4 -74 9 -85 11 -33 7
-181 24 -335 39 -36 3 -81 8 -100 10 -19 3 -69 7 -110 10 -41 2 -111 8 -155
11 -44 4 -107 8 -140 10 -68 5 -913 13 -917 9z"/>
</g>
</svg>
