<?xml version="1.0" standalone="no"?>
<!DOCTYPE svg PUBLIC "-//W3C//DTD SVG 20010904//EN"
 "http://www.w3.org/TR/2001/REC-SVG-20010904/DTD/svg10.dtd">
<svg version="1.0" xmlns="http://www.w3.org/2000/svg"
 width="1693.000000pt" height="1693.000000pt" viewBox="0 0 1693.000000 1693.000000"
 preserveAspectRatio="xMidYMid meet">
<metadata>
Created by potrace 1.14, written by Peter Selinger 2001-2017
</metadata>
<g transform="translate(0.000000,1693.000000) scale(0.100000,-0.100000)"
fill="#000000" stroke="none">
<path d="M383 15764 c-172 -35 -314 -168 -359 -338 -21 -77 -21 -12475 0
-12552 33 -126 131 -245 248 -301 36 -18 79 -35 95 -39 15 -4 289 -9 608 -10
319 -2 623 -3 675 -3 l96 -1 0 -463 c0 -490 2 -527 30 -597 61 -156 202 -275
356 -300 60 -9 8225 -7 8308 3 25 3 79 8 120 11 41 4 89 8 106 10 17 3 60 8
95 11 35 3 71 8 79 10 8 2 35 7 60 10 60 8 93 13 165 26 33 6 74 13 90 16 24
4 173 36 270 58 11 3 34 8 50 11 75 16 415 117 549 164 832 288 1616 750 2316
1364 134 118 149 132 300 281 170 167 306 310 430 454 30 35 63 73 74 85 44
50 210 261 293 371 137 184 395 568 426 635 4 8 25 44 47 79 22 34 40 65 40
67 0 3 11 21 23 42 141 224 415 820 532 1157 9 28 21 59 26 70 48 109 204 663
248 885 6 30 14 66 17 80 8 41 62 361 69 419 8 60 10 73 25 221 5 58 12 123
15 145 23 208 23 791 1 1020 -2 17 -7 64 -11 105 -4 41 -9 89 -11 105 -2 17
-6 53 -9 80 -12 104 -58 375 -85 505 -25 114 -46 200 -100 405 -58 220 -211
636 -315 860 -219 471 -444 845 -746 1245 -103 137 -234 297 -324 399 -16 19
-50 57 -75 85 -110 126 -543 549 -685 669 -16 14 -61 52 -100 85 -57 48 -238
193 -305 245 -174 134 -454 330 -645 451 -77 49 -165 105 -195 125 -30 19 -98
69 -150 112 -330 266 -717 513 -1135 724 -260 131 -485 230 -659 291 -39 14
-80 29 -91 34 -95 43 -601 191 -765 224 -14 3 -56 12 -95 20 -38 9 -122 25
-185 36 -63 11 -124 22 -135 24 -23 4 -95 14 -145 21 -19 2 -55 7 -80 10 -113
14 -203 23 -310 30 -52 4 -115 9 -140 12 -25 3 -2053 6 -4507 7 -3401 1 -4476
-1 -4520 -10z m10322 -1157 c283 -98 506 -190 785 -326 178 -87 463 -255 646
-380 151 -104 313 -225 308 -230 -7 -7 -5609 -4 -5650 3 -186 33 -338 159
-399 331 -26 74 -31 218 -10 291 49 170 175 302 340 355 64 20 531 24 2240 19
l1570 -5 170 -58z m-8965 29 c89 -23 156 -61 226 -131 266 -263 158 -710 -201
-830 -66 -22 -185 -26 -262 -10 -185 40 -341 200 -381 390 -11 54 -5 181 12
238 51 175 203 313 385 350 79 16 139 14 221 -7z m1434 4 c182 -38 340 -197
377 -380 66 -324 -179 -616 -506 -605 -165 6 -304 81 -394 215 -66 97 -83 155
-84 285 -2 142 43 249 149 357 46 47 155 111 209 124 95 21 160 22 249 4z
m1421 5 c138 -19 284 -123 353 -253 102 -191 75 -412 -68 -576 -79 -89 -209
-152 -332 -161 -232 -16 -428 112 -512 335 -21 56 -24 81 -22 175 1 108 2 112
44 197 62 127 148 209 272 258 50 20 157 38 195 34 11 -1 43 -5 70 -9z m9356
-1897 c194 -263 409 -618 559 -923 77 -157 187 -401 194 -430 1 -5 9 -26 18
-45 28 -67 107 -296 148 -430 22 -74 45 -148 50 -165 27 -88 93 -378 105 -460
4 -22 10 -56 15 -75 8 -34 11 -50 25 -150 3 -25 8 -57 11 -71 2 -15 6 -47 9
-70 3 -24 8 -55 10 -69 2 -14 7 -61 10 -105 4 -44 8 -96 11 -115 17 -157 23
-584 10 -820 -7 -135 -9 -159 -21 -280 -9 -87 -21 -186 -30 -240 -2 -14 -9
-61 -15 -105 -7 -44 -14 -89 -16 -100 -2 -11 -10 -54 -18 -95 -50 -259 -117
-513 -208 -785 -42 -126 -133 -365 -172 -450 -13 -27 -29 -65 -37 -84 -27 -66
-177 -367 -221 -446 -25 -44 -54 -96 -65 -115 -134 -236 -363 -568 -567 -820
-207 -256 -551 -605 -790 -801 -16 -13 -46 -38 -65 -54 -399 -341 -991 -698
-1528 -922 -327 -136 -769 -273 -1088 -337 -171 -35 -350 -64 -490 -81 -27 -3
-63 -8 -80 -10 -16 -2 -59 -6 -95 -10 -36 -3 -92 -8 -125 -12 -33 -4 -2060 -9
-4505 -10 l-4446 -3 0 4885 0 4885 6673 0 6672 0 62 -82z"/>
<path d="M1757 11714 c-100 -25 -173 -89 -219 -191 l-23 -48 0 -1725 c-1
-1800 -2 -1758 40 -1840 26 -50 93 -110 154 -139 l56 -26 6049 0 c4673 -1
6056 2 6083 11 40 14 79 48 97 84 13 25 33 96 51 183 2 12 11 54 19 92 15 69
40 212 51 290 3 22 8 51 10 65 4 23 10 79 20 175 15 151 19 272 20 495 0 384
-22 623 -91 995 -41 226 -138 569 -233 828 -71 194 -267 610 -323 688 -15 21
-42 46 -60 56 -31 16 -326 17 -5844 18 -4423 1 -5822 -2 -5857 -11z"/>
<path d="M1679 6894 c-55 -17 -109 -65 -140 -124 l-24 -45 0 -1275 c-1 -1020
2 -1284 12 -1321 19 -67 72 -124 139 -149 56 -20 58 -20 1502 -18 l1447 3 40
22 c57 30 80 52 107 103 l23 45 3 1280 c2 943 0 1291 -9 1322 -14 53 -68 117
-123 146 l-41 22 -1446 1 c-1166 1 -1454 -2 -1490 -12z"/>
<path d="M5791 6892 c-24 -8 -61 -32 -83 -54 -78 -78 -72 36 -74 -1383 -2
-1048 0 -1279 12 -1320 16 -61 62 -118 117 -148 l42 -22 1710 0 c1488 0 1797
3 1950 19 17 2 59 7 95 10 61 7 302 42 345 51 11 2 34 7 50 10 17 3 41 8 55
11 14 3 36 8 50 10 201 37 594 157 840 256 146 60 403 178 493 228 27 16 48
27 112 61 33 17 67 38 76 45 8 8 18 14 21 14 32 0 533 347 656 454 15 13 65
57 112 96 409 350 789 805 1079 1293 68 113 83 146 88 191 5 47 2 61 -21 99
-14 25 -43 56 -63 69 l-38 23 -3790 1 c-3296 1 -3796 -1 -3834 -14z"/>
</g>
</svg>
