<?xml version="1.0" encoding="UTF-8"?>
<svg id="Layer_2" data-name="Layer 2" xmlns="http://www.w3.org/2000/svg" xmlns:xlink="http://www.w3.org/1999/xlink" viewBox="0 0 291.06 106.63">
  <defs>
    <style>
      .cls-1 {
        fill: #fff;
      }

      .cls-2 {
        fill: #ddede8;
      }

      .cls-3 {
        fill: #05c795;
      }

      .cls-4 {
        filter: url(#AI_GaussianBlur_2);
        opacity: .47;
      }
    </style>
    <filter id="AI_GaussianBlur_2">
      <feGaussianBlur stdDeviation="2"/>
    </filter>
  </defs>
  <g id="Layer_1-2" data-name="Layer 1">
    <g>
      <g class="cls-4">
        <rect class="cls-3" x="250.96" y="2.26" width="38.1" height="33.99" rx="2.92" ry="2.92"/>
        <path class="cls-3" d="m163.23,56.01v-14.29c0-1.54,1.23-2.78,2.74-2.78h120.36c1.51,0,2.74,1.25,2.74,2.78v14.29c0,1.54-1.23,2.78-2.74,2.78h-120.36c-1.51,0-2.74-1.25-2.74-2.78Z"/>
        <rect class="cls-3" x="4.18" y="61.56" width="284.88" height="45.07" rx="3.75" ry="3.75"/>
      </g>
      <g>
        <rect class="cls-3" x="252.14" width="38.92" height="34.72" rx="2.98" ry="2.98"/>
        <path class="cls-3" d="m162.5,54.91v-14.6c0-1.57,1.25-2.84,2.8-2.84h122.97c1.54,0,2.8,1.27,2.8,2.84v14.6c0,1.57-1.25,2.84-2.8,2.84h-122.97c-1.54,0-2.8-1.27-2.8-2.84Z"/>
        <rect class="cls-3" y="60.58" width="291.06" height="46.05" rx="3.75" ry="3.75"/>
        <g>
          <path class="cls-1" d="m259.94,8.24v-.04s.02-.02.03-.03c.08-.34.3-.44.59-.54h13.16c2.07.17,4.18.93,5.8,2.32h0s.02.02.03.01h0s0,.01.02.01h0c5.04,4.38,4.35,12.42-1.45,15.8-1.5.87-3.23,1.36-4.97,1.33-4.16,0-8.32,0-12.48,0-.38,0-.61-.25-.73-.57V8.27s.03-.06,0-.03Zm10.61,3.72h-9.67q-.14,0-.14.13c.1,4.67-.2,9.73.11,14.22,4.63-.1,9.29.2,13.9-.13,1.41-.26,2.77-.84,3.91-1.72,2.94-2.21,4.27-6.29,3.1-9.79-.3-.95-.76-1.84-1.35-2.64-3.22-.22-6.59,0-9.85-.07Zm7.66-1.23s0-.01,0-.02c-.76-.6-1.65-1.07-2.56-1.37-1.81-.23-3.7-.02-5.53-.09-.68-.1-1.1.8-.61,1.27.15.13.32.21.53.21,2.72,0,5.45,0,8.17,0Zm-15.9.03c.98,0,.97-1.45.01-1.47-1.05.01-.91,1.52-.01,1.47Zm2.14,0c.95,0,.96-1.47,0-1.47-.94-.02-1,1.45,0,1.47Zm2.08,0c1.01.04,1.03-1.52-.03-1.47-.87.06-.87,1.44.03,1.47Z"/>
          <path class="cls-2" d="m262.51,27.1c4.06-.08,8.15.17,12.2-.11,1.62-.26,3.16-.93,4.47-1.94,4.89-3.74,5.02-11.09.39-15.09,2.91,1.69,5.1,4.78,5.24,8.16v.85c-.28,4.98-4.43,9.71-9.5,10.13h-.15s-.07-.04-.04,0h-12.07c-.23-.1-.55-.31-.53-.67,0-.45,0-.89,0-1.34Z"/>
          <path class="cls-1" d="m271.45,19.43c-2.98-.02-5.98.05-8.96-.02-.39-.12-.34-.63-.33-.95,0-1.45,0-2.9,0-4.35-.02-.26.17-.51.44-.51,5.6-.03,11.21,0,16.81,0,.15,0,.34,0,.41.16.34.64.6,1.32.75,2.04.25,1.14.23,2.32-.06,3.45-.03.13-.15.22-.29.21-2.93-.01-5.85,0-8.78,0Z"/>
          <path class="cls-1" d="m274.04,20.66c1.81,0,3.62,0,5.43,0,.22-.03.44.16.32.39-1.06,1.94-3.01,3.37-5.18,3.79-.29.01-.58.13-.85.11-.07.07-.14,0-.21,0-.05.04-.12.04-.18.04-1.62,0-3.24,0-4.86,0-.05,0-.09,0-.11-.06-.1-.06-.2-.13-.19-.27,0-.85,0-1.7,0-2.56.08-.44-.28-1.43.42-1.43,1.8,0,3.61,0,5.41,0Z"/>
          <path class="cls-1" d="m264.55,24.98c-.67,0-1.33,0-2,0-.26.02-.42-.22-.39-.46,0-1.16,0-2.31,0-3.47-.02-.23.16-.42.39-.4.81,0,1.62,0,2.42,0,.53,0,1.06,0,1.59,0,.26,0,.41.18.41.41-.22,4.46.98,3.91-2.43,3.92Z"/>
        </g>
        <path class="cls-1" d="m23.5,90.37l3.8-3.8,3.8,3.8,1.76-1.76-3.8-3.8,3.8-3.8-1.76-1.76-3.8,3.8-3.8-3.8-1.76,1.76,3.8,3.8-3.8,3.8,1.76,1.76Z"/>
        <g>
          <path class="cls-1" d="m50.61,78v3.28h-1.66v-9.5h3.76c1.91,0,3.15,1.25,3.15,3.11s-1.25,3.12-3.15,3.12h-2.09Zm0-4.75v3.26h1.74c1.14,0,1.75-.61,1.75-1.65s-.62-1.61-1.73-1.61h-1.77Z"/>
          <path class="cls-1" d="m57.02,81.28v-9.67h1.6v4.08c.4-.62,1.16-1.03,2.08-1.03,1.59,0,2.42,1,2.42,2.67v3.95h-1.59v-3.58c0-1.08-.53-1.6-1.34-1.6-1,0-1.59.7-1.59,1.66v3.51h-1.59Z"/>
          <path class="cls-1" d="m64.49,72.61c0-.53.43-.95.98-.95s.95.42.95.95-.43.96-.95.96c-.55,0-.98-.43-.98-.96Zm.18,2.25h1.59v6.42h-1.59v-6.42Z"/>
          <path class="cls-1" d="m68.91,79.33c.01.56.43.91,1.16.91s1.14-.3,1.14-.77c0-.33-.17-.56-.74-.69l-1.16-.27c-1.16-.26-1.72-.81-1.72-1.83,0-1.26,1.07-2.01,2.55-2.01s2.42.83,2.43,2.08h-1.51c-.01-.55-.38-.9-.99-.9s-.99.29-.99.77c0,.36.29.6.83.73l1.16.27c1.08.25,1.62.74,1.62,1.73,0,1.3-1.1,2.11-2.69,2.11s-2.61-.86-2.61-2.12h1.51Z"/>
          <path class="cls-1" d="m73.92,81.28v-9.67h1.6v4.08c.4-.62,1.16-1.03,2.08-1.03,1.59,0,2.42,1,2.42,2.67v3.95h-1.59v-3.58c0-1.08-.53-1.6-1.34-1.6-1,0-1.59.7-1.59,1.66v3.51h-1.59Z"/>
          <path class="cls-1" d="m81.39,72.61c0-.53.43-.95.98-.95s.95.42.95.95-.43.96-.95.96c-.55,0-.98-.43-.98-.96Zm.18,2.25h1.59v6.42h-1.59v-6.42Z"/>
          <path class="cls-1" d="m84.8,81.28v-6.42h1.47l.13.83c.4-.65,1.18-1.03,2.05-1.03,1.61,0,2.44,1,2.44,2.67v3.95h-1.59v-3.58c0-1.08-.53-1.6-1.35-1.6-.98,0-1.57.68-1.57,1.72v3.46h-1.59Z"/>
          <path class="cls-1" d="m95.15,74.65c.96,0,1.72.4,2.09,1.09l.09-.88h1.47v6.1c0,2.15-1.29,3.48-3.37,3.48-1.85,0-3.11-1.05-3.3-2.77h1.59c.1.83.74,1.33,1.72,1.33,1.09,0,1.79-.69,1.79-1.75v-1.07c-.4.6-1.2.98-2.12.98-1.82,0-3.02-1.37-3.02-3.22s1.22-3.28,3.05-3.28Zm.27,5.12c1.09,0,1.77-.77,1.77-1.89s-.66-1.85-1.77-1.85-1.73.79-1.73,1.85.69,1.89,1.73,1.89Z"/>
          <path class="cls-1" d="m103.66,79.44c0-1.18.86-1.92,2.38-2.04l1.92-.14v-.14c0-.87-.52-1.22-1.33-1.22-.94,0-1.46.39-1.46,1.07h-1.35c0-1.39,1.14-2.3,2.89-2.3s2.79.94,2.79,2.72v3.9h-1.39l-.12-.95c-.27.66-1.14,1.12-2.14,1.12-1.37,0-2.2-.79-2.2-2Zm4.32-.77v-.34l-1.34.1c-.99.09-1.36.42-1.36.94,0,.58.39.87,1.1.87.98,0,1.6-.58,1.6-1.57Z"/>
          <path class="cls-1" d="m111.58,81.28v-5.1h-1.24v-1.33h1.24v-2h1.59v2h1.25v1.33h-1.25v5.1h-1.59Z"/>
          <path class="cls-1" d="m116.18,81.28v-5.1h-1.24v-1.33h1.24v-2h1.59v2h1.25v1.33h-1.25v5.1h-1.59Z"/>
          <path class="cls-1" d="m119.56,78.07c0-2.02,1.31-3.41,3.2-3.41s3.15,1.29,3.15,3.29v.48h-4.84c.12,1.14.71,1.72,1.77,1.72.87,0,1.44-.34,1.62-.95h1.47c-.27,1.4-1.44,2.25-3.12,2.25-1.91,0-3.25-1.39-3.25-3.38Zm1.55-.64h3.22c0-.88-.61-1.47-1.56-1.47s-1.51.51-1.66,1.47Z"/>
          <path class="cls-1" d="m127.18,81.28v-6.42h1.46l.13.75c.33-.53.97-.95,1.9-.95.98,0,1.65.48,1.99,1.22.33-.74,1.08-1.22,2.05-1.22,1.56,0,2.42.94,2.42,2.42v4.2h-1.57v-3.78c0-.92-.49-1.4-1.25-1.4s-1.35.49-1.35,1.55v3.64h-1.59v-3.8c0-.9-.48-1.38-1.23-1.38s-1.37.49-1.37,1.53v3.64h-1.59Z"/>
          <path class="cls-1" d="m138.68,74.86h1.47l.1.97c.39-.74,1.24-1.17,2.21-1.17,1.81,0,3,1.31,3,3.33s-1.09,3.46-3,3.46c-.96,0-1.79-.38-2.2-1.03v3.84h-1.59v-9.4Zm3.41,5.16c1.12,0,1.78-.81,1.78-1.95s-.66-1.96-1.78-1.96-1.81.81-1.81,1.96.71,1.95,1.81,1.95Z"/>
          <path class="cls-1" d="m147.26,81.28v-5.1h-1.24v-1.33h1.24v-2h1.59v2h1.25v1.33h-1.25v5.1h-1.59Z"/>
          <path class="cls-1" d="m154.22,78.09c0-2,1.17-3.43,3.11-3.43.9,0,1.69.38,2.09,1.01v-4.07h1.57v9.67h-1.46l-.1-1c-.39.74-1.22,1.17-2.2,1.17-1.86,0-3.02-1.37-3.02-3.35Zm5.19-.05c0-1.16-.71-1.96-1.82-1.96s-1.78.82-1.78,1.96.68,1.95,1.78,1.95,1.82-.79,1.82-1.95Z"/>
          <path class="cls-1" d="m162.27,78.07c0-2.02,1.31-3.41,3.2-3.41s3.15,1.29,3.15,3.29v.48h-4.84c.12,1.14.71,1.72,1.77,1.72.87,0,1.44-.34,1.62-.95h1.47c-.27,1.4-1.44,2.25-3.12,2.25-1.91,0-3.25-1.39-3.25-3.38Zm1.55-.64h3.22c0-.88-.61-1.47-1.56-1.47s-1.51.51-1.66,1.47Z"/>
          <path class="cls-1" d="m170.42,81.28v-5.1h-1.24v-1.33h1.24v-2h1.59v2h1.25v1.33h-1.25v5.1h-1.59Z"/>
          <path class="cls-1" d="m173.8,78.07c0-2.02,1.31-3.41,3.2-3.41s3.15,1.29,3.15,3.29v.48h-4.84c.12,1.14.71,1.72,1.77,1.72.87,0,1.44-.34,1.62-.95h1.47c-.27,1.4-1.44,2.25-3.12,2.25-1.91,0-3.25-1.39-3.25-3.38Zm1.55-.64h3.22c0-.88-.61-1.47-1.56-1.47s-1.51.51-1.66,1.47Z"/>
          <path class="cls-1" d="m184.25,74.66c1.75,0,2.95.97,3.12,2.52h-1.59c-.18-.73-.72-1.11-1.47-1.11-1.01,0-1.69.77-1.69,1.98s.62,1.96,1.64,1.96c.79,0,1.35-.39,1.52-1.09h1.6c-.2,1.5-1.44,2.52-3.12,2.52-1.95,0-3.22-1.35-3.22-3.39s1.31-3.39,3.21-3.39Z"/>
          <path class="cls-1" d="m189.16,81.28v-5.1h-1.24v-1.33h1.24v-2h1.59v2h1.25v1.33h-1.25v5.1h-1.59Z"/>
          <path class="cls-1" d="m192.54,78.07c0-2.02,1.31-3.41,3.2-3.41s3.15,1.29,3.15,3.29v.48h-4.84c.12,1.14.71,1.72,1.77,1.72.87,0,1.44-.34,1.62-.95h1.47c-.27,1.4-1.44,2.25-3.12,2.25-1.91,0-3.25-1.39-3.25-3.38Zm1.55-.64h3.22c0-.88-.61-1.47-1.56-1.47s-1.51.51-1.66,1.47Z"/>
          <path class="cls-1" d="m199.78,78.09c0-2,1.17-3.43,3.11-3.43.9,0,1.69.38,2.09,1.01v-4.07h1.57v9.67h-1.46l-.1-1c-.39.74-1.22,1.17-2.2,1.17-1.86,0-3.02-1.37-3.02-3.35Zm5.19-.05c0-1.16-.71-1.96-1.82-1.96s-1.78.82-1.78,1.96.68,1.95,1.78,1.95,1.82-.79,1.82-1.95Z"/>
          <path class="cls-1" d="m208.4,80.42c0-.57.48-1.04,1.07-1.04s1.04.47,1.04,1.04-.48,1.03-1.04,1.03-1.07-.47-1.07-1.03Zm.42-1.99c-.17-1.04-.29-2.78-.29-4.47v-2.18h1.87v2.18c0,1.73-.13,3.47-.31,4.47h-1.27Z"/>
        </g>
        <g>
          <path class="cls-1" d="m48.49,95.52l.06-9.5,3.33.02c2.81.02,4.73,1.97,4.71,4.8-.02,2.79-1.93,4.72-4.68,4.7l-3.42-.02Zm1.71-7.96l-.04,6.44h1.6c1.9.02,3.06-1.19,3.07-3.17.01-2.01-1.16-3.25-3.12-3.26h-1.51Z"/>
          <path class="cls-1" d="m62.14,95.76c-2.72-.02-4.58-2.04-4.56-4.94.02-2.89,1.92-4.9,4.63-4.89,2.72.02,4.6,2.04,4.58,4.94-.02,2.89-1.93,4.9-4.66,4.88Zm.06-8.23c-1.74-.01-2.87,1.27-2.88,3.3-.01,2.03,1.1,3.32,2.84,3.33,1.74.01,2.87-1.29,2.88-3.3.01-2.03-1.1-3.32-2.84-3.33Z"/>
          <path class="cls-1" d="m71.83,95.67l.06-9.5h1.65s4.42,6.77,4.42,6.77l.04-6.73h1.64s-.06,9.51-.06,9.51h-1.64s-4.43-6.77-4.43-6.77l-.04,6.73h-1.64Z"/>
          <path class="cls-1" d="m85.67,95.91c-2.72-.02-4.58-2.04-4.56-4.94.02-2.89,1.92-4.9,4.63-4.89,2.72.02,4.6,2.04,4.58,4.94-.02,2.89-1.93,4.9-4.66,4.88Zm.06-8.23c-1.74-.01-2.87,1.27-2.88,3.3-.01,2.03,1.1,3.32,2.84,3.33,1.74.01,2.87-1.29,2.88-3.3.01-2.03-1.1-3.32-2.84-3.33Z"/>
          <path class="cls-1" d="m90.78,86.28l7.23.05v1.53s-2.79-.02-2.79-.02l-.05,7.97h-1.66s.05-7.98.05-7.98l-2.78-.02v-1.53Z"/>
          <path class="cls-1" d="m102.73,95.86l.06-9.5,5.9.04v1.53s-4.25-.03-4.25-.03v2.44s3.78.02,3.78.02v1.47s-3.81-.02-3.81-.02l-.02,2.52,4.24.03v1.53s-5.91-.04-5.91-.04Z"/>
          <path class="cls-1" d="m110.3,95.91l.06-9.5h1.65s4.42,6.77,4.42,6.77l.04-6.73h1.64s-.06,9.51-.06,9.51h-1.64s-4.43-6.77-4.43-6.77l-.04,6.73h-1.64Z"/>
          <path class="cls-1" d="m119.24,86.46l7.23.04v1.53s-2.79-.02-2.79-.02l-.05,7.97h-1.66s.05-7.98.05-7.98l-2.78-.02v-1.53Z"/>
          <path class="cls-1" d="m127.53,96.02l.06-9.5,5.9.04v1.53s-4.25-.03-4.25-.03v2.44s3.78.02,3.78.02v1.47s-3.81-.02-3.81-.02l-.02,2.52,4.24.03v1.53s-5.91-.04-5.91-.04Z"/>
          <path class="cls-1" d="m135.1,96.07l.06-9.5,3.63.02c2.16.01,3.41,1.11,3.4,2.99,0,1.27-.61,2.18-1.73,2.63l1.78,3.91h-1.82s-1.59-3.57-1.59-3.57h-2.04s-.02,3.54-.02,3.54h-1.66Zm1.7-5.01h1.96c1.05.02,1.68-.54,1.69-1.5,0-.95-.61-1.49-1.67-1.49h-1.96s-.02,2.99-.02,2.99Z"/>
          <path class="cls-1" d="m146.46,86.63h1.86s1.85,3.48,1.85,3.48c.14.26.23.47.33.7.12-.23.17-.39.34-.7l1.88-3.45h1.81s-3.23,5.75-3.23,5.75l-.02,3.74h-1.66s.02-3.75.02-3.75l-3.17-5.78Z"/>
          <path class="cls-1" d="m159.04,96.37c-2.72-.02-4.58-2.04-4.56-4.94.02-2.89,1.92-4.9,4.63-4.89,2.72.02,4.6,2.04,4.58,4.94-.02,2.89-1.93,4.9-4.66,4.88Zm.06-8.23c-1.74-.01-2.87,1.27-2.88,3.3-.01,2.03,1.1,3.32,2.84,3.33,1.74.01,2.87-1.29,2.88-3.3.01-2.03-1.1-3.32-2.84-3.33Z"/>
          <path class="cls-1" d="m165.15,86.75h1.66s-.04,5.94-.04,5.94c0,1.37.73,2.12,2.08,2.13,1.35,0,2.11-.75,2.12-2.11l.04-5.93h1.66s-.04,6.04-.04,6.04c-.01,2.22-1.48,3.62-3.79,3.6-2.3-.01-3.75-1.42-3.73-3.65l.04-6.03Z"/>
          <path class="cls-1" d="m174.57,96.31l.06-9.5,3.63.02c2.16.01,3.41,1.11,3.4,2.99,0,1.27-.61,2.18-1.73,2.63l1.78,3.91h-1.82s-1.59-3.57-1.59-3.57h-2.04s-.02,3.54-.02,3.54h-1.66Zm1.7-5.01h1.96c1.05.02,1.68-.54,1.69-1.5,0-.95-.61-1.49-1.67-1.49h-1.96s-.02,2.99-.02,2.99Z"/>
          <path class="cls-1" d="m188.48,93.12l-.02,3.28h-1.66s.06-9.51.06-9.51l3.76.02c1.91.01,3.14,1.27,3.13,3.13-.01,1.83-1.27,3.11-3.17,3.1h-2.09Zm.03-4.75l-.02,3.26h1.74c1.14.02,1.76-.59,1.76-1.63,0-1.04-.61-1.62-1.72-1.62h-1.77Z"/>
          <path class="cls-1" d="m193.47,96.43l3.49-9.48h1.7s3.37,9.54,3.37,9.54h-1.75s-.75-2.21-.75-2.21l-3.55-.02-.78,2.19h-1.73Zm3.01-3.58l2.57.02-1.07-3.07c-.08-.25-.17-.53-.19-.73-.04.18-.12.47-.21.73l-1.1,3.06Z"/>
          <path class="cls-1" d="m206.01,86.84c1.92.01,3.14,1.09,3.18,2.8h-1.66c-.03-.83-.62-1.31-1.55-1.32-1.03,0-1.69.48-1.7,1.28,0,.68.36,1.06,1.15,1.24l1.49.33c1.62.36,2.41,1.2,2.4,2.61-.01,1.77-1.4,2.9-3.49,2.89-2.03-.01-3.35-1.1-3.38-2.8h1.66c0,.82.65,1.3,1.72,1.31,1.1,0,1.81-.47,1.82-1.26,0-.64-.32-1.02-1.1-1.19l-1.51-.35c-1.61-.36-2.45-1.29-2.44-2.75.01-1.66,1.4-2.81,3.4-2.8Z"/>
          <path class="cls-1" d="m213.81,86.89c1.92.01,3.14,1.08,3.18,2.8h-1.66c-.03-.83-.62-1.31-1.55-1.32-1.03,0-1.69.48-1.7,1.28,0,.68.36,1.05,1.15,1.24l1.49.33c1.62.36,2.41,1.2,2.4,2.62-.01,1.77-1.4,2.9-3.49,2.89-2.03-.01-3.35-1.1-3.38-2.8h1.66c0,.82.65,1.3,1.72,1.31,1.1,0,1.81-.47,1.82-1.26,0-.64-.32-1.02-1.1-1.19l-1.5-.35c-1.61-.36-2.45-1.29-2.44-2.75.01-1.66,1.4-2.81,3.4-2.8Z"/>
          <path class="cls-1" d="m217.61,87.08h1.73s1.48,5.04,1.48,5.04c.14.52.28,1.06.42,1.89.16-.84.31-1.34.48-1.88l1.53-5.01h1.83s1.44,5.04,1.44,5.04c.15.53.29,1.08.44,1.89.19-.88.32-1.39.47-1.87l1.57-5.02h1.69s-2.95,9.5-2.95,9.5h-1.61s-1.98-6.94-1.98-6.94l-2.11,6.9h-1.64s-2.77-9.53-2.77-9.53Z"/>
          <path class="cls-1" d="m235.54,96.86c-2.72-.02-4.58-2.04-4.56-4.94.02-2.89,1.92-4.9,4.63-4.88,2.72.02,4.6,2.04,4.58,4.94-.02,2.89-1.93,4.9-4.66,4.88Zm.07-8.23c-1.74-.01-2.87,1.27-2.88,3.3-.01,2.03,1.1,3.32,2.84,3.33,1.74.01,2.87-1.29,2.88-3.3.01-2.03-1.1-3.32-2.84-3.33Z"/>
          <path class="cls-1" d="m241.68,96.74l.06-9.5,3.63.02c2.16.01,3.41,1.11,3.4,2.99,0,1.27-.61,2.18-1.73,2.63l1.78,3.91h-1.82s-1.59-3.57-1.59-3.57h-2.04s-.02,3.54-.02,3.54h-1.66Zm1.7-5.01h1.96c1.05.02,1.68-.54,1.69-1.5,0-.95-.61-1.49-1.67-1.49h-1.96s-.02,2.99-.02,2.99Z"/>
          <path class="cls-1" d="m250.33,96.79l.06-9.5,3.33.02c2.81.02,4.73,1.97,4.71,4.8-.02,2.79-1.93,4.72-4.68,4.7l-3.42-.02Zm1.71-7.96l-.04,6.44h1.6c1.9.02,3.06-1.19,3.07-3.17.01-2.01-1.16-3.25-3.12-3.26h-1.51Z"/>
        </g>
        <g>
          <path class="cls-1" d="m169.88,48.87c0-1.69.99-2.9,2.63-2.9.76,0,1.43.32,1.77.86v-3.44h1.33v8.19h-1.23l-.09-.85c-.33.63-1.03.99-1.86.99-1.57,0-2.55-1.15-2.55-2.84Zm4.39-.04c0-.98-.61-1.66-1.54-1.66s-1.51.69-1.51,1.66.57,1.65,1.51,1.65,1.54-.67,1.54-1.65Z"/>
          <path class="cls-1" d="m176.85,44.23c0-.45.36-.8.83-.8s.8.35.8.8-.36.81-.8.81-.83-.36-.83-.81Zm.15,1.9h1.34v5.43h-1.34v-5.43Z"/>
          <path class="cls-1" d="m179.42,48.87c0-1.69.99-2.9,2.63-2.9.76,0,1.43.32,1.77.86v-3.44h1.33v8.19h-1.23l-.09-.85c-.33.63-1.03.99-1.86.99-1.57,0-2.55-1.15-2.55-2.84Zm4.39-.04c0-.98-.61-1.66-1.54-1.66s-1.51.69-1.51,1.66.57,1.65,1.51,1.65,1.54-.67,1.54-1.65Z"/>
          <path class="cls-1" d="m187.4,49.92c.01.47.36.77.98.77s.97-.25.97-.65c0-.28-.14-.47-.63-.58l-.98-.23c-.98-.22-1.45-.68-1.45-1.55,0-1.07.9-1.71,2.16-1.71s2.05.7,2.06,1.76h-1.28c-.01-.46-.32-.76-.84-.76s-.84.24-.84.65c0,.31.24.51.7.62l.98.23c.91.21,1.38.63,1.38,1.46,0,1.1-.94,1.78-2.28,1.78s-2.21-.73-2.21-1.79h1.28Z"/>
          <path class="cls-1" d="m194.22,45.98c1.68,0,2.9,1.17,2.9,2.86s-1.22,2.86-2.9,2.86-2.9-1.17-2.9-2.86,1.22-2.86,2.9-2.86Zm0,4.52c.92,0,1.56-.67,1.56-1.66s-.64-1.66-1.56-1.66-1.56.67-1.56,1.66.64,1.66,1.56,1.66Z"/>
          <path class="cls-1" d="m198.19,51.57v-5.43h1.23l.11.64c.28-.45.83-.8,1.61-.8.83,0,1.4.41,1.68,1.03.27-.63.91-1.03,1.74-1.03,1.32,0,2.05.79,2.05,2.05v3.55h-1.33v-3.2c0-.78-.42-1.19-1.06-1.19s-1.14.42-1.14,1.31v3.08h-1.34v-3.21c0-.76-.41-1.17-1.04-1.17s-1.16.42-1.16,1.3v3.08h-1.34Z"/>
          <path class="cls-1" d="m207.61,48.85c0-1.71,1.11-2.88,2.71-2.88s2.66,1.09,2.66,2.78v.41h-4.09c.1.97.6,1.45,1.5,1.45.74,0,1.22-.29,1.38-.8h1.24c-.23,1.19-1.22,1.9-2.64,1.9-1.62,0-2.75-1.18-2.75-2.86Zm1.31-.54h2.73c0-.75-.52-1.24-1.32-1.24s-1.28.43-1.41,1.24Z"/>
          <path class="cls-1" d="m216.64,45.98c1.68,0,2.9,1.17,2.9,2.86s-1.22,2.86-2.9,2.86-2.9-1.17-2.9-2.86,1.22-2.86,2.9-2.86Zm0,4.52c.92,0,1.56-.67,1.56-1.66s-.64-1.66-1.56-1.66-1.56.67-1.56,1.66.64,1.66,1.56,1.66Z"/>
          <path class="cls-1" d="m220.61,51.57v-5.43h1.24l.11.7c.34-.55,1-.87,1.74-.87,1.36,0,2.07.85,2.07,2.25v3.34h-1.34v-3.03c0-.91-.45-1.35-1.14-1.35-.83,0-1.33.57-1.33,1.45v2.93h-1.34Z"/>
          <path class="cls-1" d="m226.77,48.85c0-1.71,1.11-2.88,2.71-2.88s2.66,1.09,2.66,2.78v.41h-4.09c.1.97.6,1.45,1.5,1.45.74,0,1.22-.29,1.38-.8h1.24c-.23,1.19-1.22,1.9-2.64,1.9-1.62,0-2.75-1.18-2.75-2.86Zm1.31-.54h2.73c0-.75-.52-1.24-1.32-1.24s-1.28.43-1.41,1.24Z"/>
          <path class="cls-1" d="m235.62,45.97c1.49,0,2.5.83,2.64,2.13h-1.34c-.15-.62-.61-.93-1.24-.93-.86,0-1.43.65-1.43,1.67s.53,1.66,1.39,1.66c.67,0,1.14-.33,1.29-.92h1.35c-.17,1.26-1.22,2.13-2.64,2.13-1.65,0-2.73-1.14-2.73-2.87s1.11-2.87,2.72-2.87Z"/>
          <path class="cls-1" d="m239.29,51.57v-8.19h1.33v8.19h-1.33Z"/>
          <path class="cls-1" d="m244.61,45.98c1.68,0,2.9,1.17,2.9,2.86s-1.22,2.86-2.9,2.86-2.9-1.17-2.9-2.86,1.22-2.86,2.9-2.86Zm0,4.52c.92,0,1.56-.67,1.56-1.66s-.64-1.66-1.56-1.66-1.56.67-1.56,1.66.64,1.66,1.56,1.66Z"/>
          <path class="cls-1" d="m248.58,51.57v-5.43h1.24l.11.7c.34-.55,1-.87,1.74-.87,1.36,0,2.07.85,2.07,2.25v3.34h-1.34v-3.03c0-.91-.45-1.35-1.14-1.35-.83,0-1.33.57-1.33,1.45v2.93h-1.34Z"/>
          <path class="cls-1" d="m254.74,48.85c0-1.71,1.11-2.88,2.71-2.88s2.66,1.09,2.66,2.78v.41h-4.09c.1.97.6,1.45,1.5,1.45.74,0,1.22-.29,1.38-.8h1.24c-.23,1.19-1.22,1.9-2.64,1.9-1.62,0-2.75-1.18-2.75-2.86Zm1.31-.54h2.73c0-.75-.52-1.24-1.32-1.24s-1.28.43-1.41,1.24Z"/>
          <path class="cls-1" d="m260.87,50.83c0-.48.41-.88.89-.88s.89.4.89.88-.41.87-.89.87-.89-.4-.89-.87Z"/>
          <path class="cls-1" d="m264.06,51.57v-5.43h1.23l.11.64c.28-.45.83-.8,1.61-.8.83,0,1.4.41,1.68,1.03.27-.63.91-1.03,1.74-1.03,1.32,0,2.05.79,2.05,2.05v3.55h-1.33v-3.2c0-.78-.42-1.19-1.06-1.19s-1.14.42-1.14,1.31v3.08h-1.34v-3.21c0-.76-.41-1.17-1.04-1.17s-1.16.42-1.16,1.3v3.08h-1.34Z"/>
          <path class="cls-1" d="m273.48,48.85c0-1.71,1.11-2.88,2.71-2.88s2.66,1.09,2.66,2.78v.41h-4.09c.1.97.6,1.45,1.5,1.45.74,0,1.22-.29,1.38-.8h1.24c-.23,1.19-1.22,1.9-2.64,1.9-1.62,0-2.75-1.18-2.75-2.86Zm1.31-.54h2.73c0-.75-.52-1.24-1.32-1.24s-1.28.43-1.41,1.24Z"/>
        </g>
      </g>
    </g>
  </g>
</svg>