<?xml version="1.0" encoding="UTF-8"?>
<svg id="Layer_2" data-name="Layer 2" xmlns="http://www.w3.org/2000/svg" xmlns:xlink="http://www.w3.org/1999/xlink" viewBox="0 0 291.06 70.38">
  <defs>
    <style>
      .cls-1 {
        fill: #fff;
      }

      .cls-2 {
        fill: #ddede8;
      }

      .cls-3 {
        fill: #05c795;
      }

      .cls-4 {
        filter: url(#AI_GaussianBlur_2);
        opacity: .47;
      }
    </style>
    <filter id="AI_GaussianBlur_2">
      <feGaussianBlur stdDeviation="2"/>
    </filter>
  </defs>
  <g id="Layer_1-2" data-name="Layer 1">
    <g>
      <g class="cls-4">
        <path class="cls-3" d="m149.62,19.76V5.47c0-1.54,1.36-2.78,3.03-2.78h133.37c1.68,0,3.03,1.25,3.03,2.78v14.29c0,1.54-1.36,2.78-3.03,2.78h-133.37c-1.68,0-3.03-1.25-3.03-2.78Z"/>
        <rect class="cls-3" x="4.18" y="25.31" width="284.88" height="45.07" rx="3.75" ry="3.75"/>
      </g>
      <g>
        <path class="cls-3" d="m148.41,18.66V4.06c0-1.57,1.39-2.84,3.1-2.84h136.44c1.71,0,3.1,1.27,3.1,2.84v14.6c0,1.57-1.39,2.84-3.1,2.84h-136.44c-1.71,0-3.1-1.27-3.1-2.84Z"/>
        <rect class="cls-3" y="24.33" width="291.06" height="46.05" rx="3.75" ry="3.75"/>
        <path class="cls-1" d="m23.5,54.12l3.8-3.8,3.8,3.8,1.76-1.76-3.8-3.8,3.8-3.8-1.76-1.76-3.8,3.8-3.8-3.8-1.76,1.76,3.8,3.8-3.8,3.8,1.76,1.76Z"/>
        <g>
          <path class="cls-1" d="m50.61,41.75v3.28h-1.66v-9.5h3.76c1.91,0,3.15,1.25,3.15,3.11s-1.25,3.12-3.15,3.12h-2.09Zm0-4.75v3.26h1.74c1.14,0,1.75-.61,1.75-1.65s-.62-1.61-1.73-1.61h-1.77Z"/>
          <path class="cls-1" d="m57.02,45.03v-9.67h1.6v4.08c.4-.62,1.16-1.03,2.08-1.03,1.59,0,2.42,1,2.42,2.67v3.95h-1.59v-3.58c0-1.08-.53-1.6-1.34-1.6-1,0-1.59.7-1.59,1.66v3.51h-1.59Z"/>
          <path class="cls-1" d="m64.49,36.36c0-.53.43-.95.98-.95s.95.42.95.95-.43.96-.95.96c-.55,0-.98-.43-.98-.96Zm.18,2.25h1.59v6.42h-1.59v-6.42Z"/>
          <path class="cls-1" d="m68.91,43.08c.01.56.43.91,1.16.91s1.14-.3,1.14-.77c0-.33-.17-.56-.74-.69l-1.16-.27c-1.16-.26-1.72-.81-1.72-1.83,0-1.26,1.07-2.01,2.55-2.01s2.42.83,2.43,2.08h-1.51c-.01-.55-.38-.9-.99-.9s-.99.29-.99.77c0,.36.29.6.83.73l1.16.27c1.08.25,1.62.74,1.62,1.73,0,1.3-1.1,2.11-2.69,2.11s-2.61-.86-2.61-2.12h1.51Z"/>
          <path class="cls-1" d="m73.92,45.03v-9.67h1.6v4.08c.4-.62,1.16-1.03,2.08-1.03,1.59,0,2.42,1,2.42,2.67v3.95h-1.59v-3.58c0-1.08-.53-1.6-1.34-1.6-1,0-1.59.7-1.59,1.66v3.51h-1.59Z"/>
          <path class="cls-1" d="m81.39,36.36c0-.53.43-.95.98-.95s.95.42.95.95-.43.96-.95.96c-.55,0-.98-.43-.98-.96Zm.18,2.25h1.59v6.42h-1.59v-6.42Z"/>
          <path class="cls-1" d="m84.8,45.03v-6.42h1.47l.13.83c.4-.65,1.18-1.03,2.05-1.03,1.61,0,2.44,1,2.44,2.67v3.95h-1.59v-3.58c0-1.08-.53-1.6-1.35-1.6-.98,0-1.57.68-1.57,1.72v3.46h-1.59Z"/>
          <path class="cls-1" d="m95.15,38.4c.96,0,1.72.4,2.09,1.09l.09-.88h1.47v6.1c0,2.15-1.29,3.48-3.37,3.48-1.85,0-3.11-1.05-3.3-2.77h1.59c.1.83.74,1.33,1.72,1.33,1.09,0,1.79-.69,1.79-1.75v-1.07c-.4.6-1.2.98-2.12.98-1.82,0-3.02-1.37-3.02-3.22s1.22-3.28,3.05-3.28Zm.27,5.12c1.09,0,1.77-.77,1.77-1.89s-.66-1.85-1.77-1.85-1.73.79-1.73,1.85.69,1.89,1.73,1.89Z"/>
          <path class="cls-1" d="m103.66,43.19c0-1.18.86-1.92,2.38-2.04l1.92-.14v-.14c0-.87-.52-1.22-1.33-1.22-.94,0-1.46.39-1.46,1.07h-1.35c0-1.39,1.14-2.3,2.89-2.3s2.79.94,2.79,2.72v3.9h-1.39l-.12-.95c-.27.66-1.14,1.12-2.14,1.12-1.37,0-2.2-.79-2.2-2Zm4.32-.77v-.34l-1.34.1c-.99.09-1.36.42-1.36.94,0,.58.39.87,1.1.87.98,0,1.6-.58,1.6-1.57Z"/>
          <path class="cls-1" d="m111.58,45.03v-5.1h-1.24v-1.33h1.24v-2h1.59v2h1.25v1.33h-1.25v5.1h-1.59Z"/>
          <path class="cls-1" d="m116.18,45.03v-5.1h-1.24v-1.33h1.24v-2h1.59v2h1.25v1.33h-1.25v5.1h-1.59Z"/>
          <path class="cls-1" d="m119.56,41.82c0-2.02,1.31-3.41,3.2-3.41s3.15,1.29,3.15,3.29v.48h-4.84c.12,1.14.71,1.72,1.77,1.72.87,0,1.44-.34,1.62-.95h1.47c-.27,1.4-1.44,2.25-3.12,2.25-1.91,0-3.25-1.39-3.25-3.38Zm1.55-.64h3.22c0-.88-.61-1.47-1.56-1.47s-1.51.51-1.66,1.47Z"/>
          <path class="cls-1" d="m127.18,45.03v-6.42h1.46l.13.75c.33-.53.97-.95,1.9-.95.98,0,1.65.48,1.99,1.22.33-.74,1.08-1.22,2.05-1.22,1.56,0,2.42.94,2.42,2.42v4.2h-1.57v-3.78c0-.92-.49-1.4-1.25-1.4s-1.35.49-1.35,1.55v3.64h-1.59v-3.8c0-.9-.48-1.38-1.23-1.38s-1.37.49-1.37,1.53v3.64h-1.59Z"/>
          <path class="cls-1" d="m138.68,38.6h1.47l.1.97c.39-.74,1.24-1.17,2.21-1.17,1.81,0,3,1.31,3,3.33s-1.09,3.46-3,3.46c-.96,0-1.79-.38-2.2-1.03v3.84h-1.59v-9.4Zm3.41,5.16c1.12,0,1.78-.81,1.78-1.95s-.66-1.96-1.78-1.96-1.81.81-1.81,1.96.71,1.95,1.81,1.95Z"/>
          <path class="cls-1" d="m147.26,45.03v-5.1h-1.24v-1.33h1.24v-2h1.59v2h1.25v1.33h-1.25v5.1h-1.59Z"/>
          <path class="cls-1" d="m154.22,41.84c0-2,1.17-3.43,3.11-3.43.9,0,1.69.38,2.09,1.01v-4.07h1.57v9.67h-1.46l-.1-1c-.39.74-1.22,1.17-2.2,1.17-1.86,0-3.02-1.37-3.02-3.35Zm5.19-.05c0-1.16-.71-1.96-1.82-1.96s-1.78.82-1.78,1.96.68,1.95,1.78,1.95,1.82-.79,1.82-1.95Z"/>
          <path class="cls-1" d="m162.27,41.82c0-2.02,1.31-3.41,3.2-3.41s3.15,1.29,3.15,3.29v.48h-4.84c.12,1.14.71,1.72,1.77,1.72.87,0,1.44-.34,1.62-.95h1.47c-.27,1.4-1.44,2.25-3.12,2.25-1.91,0-3.25-1.39-3.25-3.38Zm1.55-.64h3.22c0-.88-.61-1.47-1.56-1.47s-1.51.51-1.66,1.47Z"/>
          <path class="cls-1" d="m170.42,45.03v-5.1h-1.24v-1.33h1.24v-2h1.59v2h1.25v1.33h-1.25v5.1h-1.59Z"/>
          <path class="cls-1" d="m173.8,41.82c0-2.02,1.31-3.41,3.2-3.41s3.15,1.29,3.15,3.29v.48h-4.84c.12,1.14.71,1.72,1.77,1.72.87,0,1.44-.34,1.62-.95h1.47c-.27,1.4-1.44,2.25-3.12,2.25-1.91,0-3.25-1.39-3.25-3.38Zm1.55-.64h3.22c0-.88-.61-1.47-1.56-1.47s-1.51.51-1.66,1.47Z"/>
          <path class="cls-1" d="m184.25,38.41c1.75,0,2.95.97,3.12,2.52h-1.59c-.18-.73-.72-1.11-1.47-1.11-1.01,0-1.69.77-1.69,1.98s.62,1.96,1.64,1.96c.79,0,1.35-.39,1.52-1.09h1.6c-.2,1.5-1.44,2.52-3.12,2.52-1.95,0-3.22-1.35-3.22-3.39s1.31-3.39,3.21-3.39Z"/>
          <path class="cls-1" d="m189.16,45.03v-5.1h-1.24v-1.33h1.24v-2h1.59v2h1.25v1.33h-1.25v5.1h-1.59Z"/>
          <path class="cls-1" d="m192.54,41.82c0-2.02,1.31-3.41,3.2-3.41s3.15,1.29,3.15,3.29v.48h-4.84c.12,1.14.71,1.72,1.77,1.72.87,0,1.44-.34,1.62-.95h1.47c-.27,1.4-1.44,2.25-3.12,2.25-1.91,0-3.25-1.39-3.25-3.38Zm1.55-.64h3.22c0-.88-.61-1.47-1.56-1.47s-1.51.51-1.66,1.47Z"/>
          <path class="cls-1" d="m199.78,41.84c0-2,1.17-3.43,3.11-3.43.9,0,1.69.38,2.09,1.01v-4.07h1.57v9.67h-1.46l-.1-1c-.39.74-1.22,1.17-2.2,1.17-1.86,0-3.02-1.37-3.02-3.35Zm5.19-.05c0-1.16-.71-1.96-1.82-1.96s-1.78.82-1.78,1.96.68,1.95,1.78,1.95,1.82-.79,1.82-1.95Z"/>
          <path class="cls-1" d="m208.4,44.17c0-.57.48-1.04,1.07-1.04s1.04.47,1.04,1.04-.48,1.03-1.04,1.03-1.07-.47-1.07-1.03Zm.42-1.99c-.17-1.04-.29-2.78-.29-4.47v-2.18h1.87v2.18c0,1.73-.13,3.47-.31,4.47h-1.27Z"/>
        </g>
        <g>
          <path class="cls-1" d="m48.49,59.27l.06-9.5,3.33.02c2.81.02,4.73,1.97,4.71,4.8-.02,2.79-1.93,4.72-4.68,4.7l-3.42-.02Zm1.71-7.96l-.04,6.44h1.6c1.9.02,3.06-1.19,3.07-3.17.01-2.01-1.16-3.25-3.12-3.26h-1.51Z"/>
          <path class="cls-1" d="m62.14,59.51c-2.72-.02-4.58-2.04-4.56-4.94.02-2.89,1.92-4.9,4.63-4.89,2.72.02,4.6,2.04,4.58,4.94-.02,2.89-1.93,4.9-4.66,4.88Zm.06-8.23c-1.74-.01-2.87,1.27-2.88,3.3-.01,2.03,1.1,3.32,2.84,3.33,1.74.01,2.87-1.29,2.88-3.3.01-2.03-1.1-3.32-2.84-3.33Z"/>
          <path class="cls-1" d="m71.83,59.41l.06-9.5h1.65s4.42,6.77,4.42,6.77l.04-6.73h1.64s-.06,9.51-.06,9.51h-1.64s-4.43-6.77-4.43-6.77l-.04,6.73h-1.64Z"/>
          <path class="cls-1" d="m85.67,59.66c-2.72-.02-4.58-2.04-4.56-4.94.02-2.89,1.92-4.9,4.63-4.89,2.72.02,4.6,2.04,4.58,4.94-.02,2.89-1.93,4.9-4.66,4.88Zm.06-8.23c-1.74-.01-2.87,1.27-2.88,3.3-.01,2.03,1.1,3.32,2.84,3.33,1.74.01,2.87-1.29,2.88-3.3.01-2.03-1.1-3.32-2.84-3.33Z"/>
          <path class="cls-1" d="m90.78,50.03l7.23.05v1.53s-2.79-.02-2.79-.02l-.05,7.97h-1.66s.05-7.98.05-7.98l-2.78-.02v-1.53Z"/>
          <path class="cls-1" d="m102.73,59.61l.06-9.5,5.9.04v1.53s-4.25-.03-4.25-.03v2.44s3.78.02,3.78.02v1.47s-3.81-.02-3.81-.02l-.02,2.52,4.24.03v1.53s-5.91-.04-5.91-.04Z"/>
          <path class="cls-1" d="m110.3,59.66l.06-9.5h1.65s4.42,6.77,4.42,6.77l.04-6.73h1.64s-.06,9.51-.06,9.51h-1.64s-4.43-6.77-4.43-6.77l-.04,6.73h-1.64Z"/>
          <path class="cls-1" d="m119.24,50.21l7.23.04v1.53s-2.79-.02-2.79-.02l-.05,7.97h-1.66s.05-7.98.05-7.98l-2.78-.02v-1.53Z"/>
          <path class="cls-1" d="m127.53,59.77l.06-9.5,5.9.04v1.53s-4.25-.03-4.25-.03v2.44s3.78.02,3.78.02v1.47s-3.81-.02-3.81-.02l-.02,2.52,4.24.03v1.53s-5.91-.04-5.91-.04Z"/>
          <path class="cls-1" d="m135.1,59.81l.06-9.5,3.63.02c2.16.01,3.41,1.11,3.4,2.99,0,1.27-.61,2.18-1.73,2.63l1.78,3.91h-1.82s-1.59-3.57-1.59-3.57h-2.04s-.02,3.54-.02,3.54h-1.66Zm1.7-5.01h1.96c1.05.02,1.68-.54,1.69-1.5,0-.95-.61-1.49-1.67-1.49h-1.96s-.02,2.99-.02,2.99Z"/>
          <path class="cls-1" d="m146.46,50.38h1.86s1.85,3.48,1.85,3.48c.14.26.23.47.33.7.12-.23.17-.39.34-.7l1.88-3.45h1.81s-3.23,5.75-3.23,5.75l-.02,3.74h-1.66s.02-3.75.02-3.75l-3.17-5.78Z"/>
          <path class="cls-1" d="m159.04,60.12c-2.72-.02-4.58-2.04-4.56-4.94.02-2.89,1.92-4.9,4.63-4.89,2.72.02,4.6,2.04,4.58,4.94-.02,2.89-1.93,4.9-4.66,4.88Zm.06-8.23c-1.74-.01-2.87,1.27-2.88,3.3-.01,2.03,1.1,3.32,2.84,3.33,1.74.01,2.87-1.29,2.88-3.3.01-2.03-1.1-3.32-2.84-3.33Z"/>
          <path class="cls-1" d="m165.15,50.5h1.66s-.04,5.94-.04,5.94c0,1.37.73,2.12,2.08,2.13,1.35,0,2.11-.75,2.12-2.11l.04-5.93h1.66s-.04,6.04-.04,6.04c-.01,2.22-1.48,3.62-3.79,3.6-2.3-.01-3.75-1.42-3.73-3.65l.04-6.03Z"/>
          <path class="cls-1" d="m174.57,60.06l.06-9.5,3.63.02c2.16.01,3.41,1.11,3.4,2.99,0,1.27-.61,2.18-1.73,2.63l1.78,3.91h-1.82s-1.59-3.57-1.59-3.57h-2.04s-.02,3.54-.02,3.54h-1.66Zm1.7-5.01h1.96c1.05.02,1.68-.54,1.69-1.5,0-.95-.61-1.49-1.67-1.49h-1.96s-.02,2.99-.02,2.99Z"/>
          <path class="cls-1" d="m188.48,56.87l-.02,3.28h-1.66s.06-9.51.06-9.51l3.76.02c1.91.01,3.14,1.27,3.13,3.13-.01,1.83-1.27,3.11-3.17,3.1h-2.09Zm.03-4.75l-.02,3.26h1.74c1.14.02,1.76-.59,1.76-1.63,0-1.04-.61-1.62-1.72-1.62h-1.77Z"/>
          <path class="cls-1" d="m193.47,60.18l3.49-9.48h1.7s3.37,9.54,3.37,9.54h-1.75s-.75-2.21-.75-2.21l-3.55-.02-.78,2.19h-1.73Zm3.01-3.58l2.57.02-1.07-3.07c-.08-.25-.17-.53-.19-.73-.04.18-.12.47-.21.73l-1.1,3.06Z"/>
          <path class="cls-1" d="m206.01,50.59c1.92.01,3.14,1.09,3.18,2.8h-1.66c-.03-.83-.62-1.31-1.55-1.32-1.03,0-1.69.48-1.7,1.28,0,.68.36,1.06,1.15,1.24l1.49.33c1.62.36,2.41,1.2,2.4,2.61-.01,1.77-1.4,2.9-3.49,2.89-2.03-.01-3.35-1.1-3.38-2.8h1.66c0,.82.65,1.3,1.72,1.31,1.1,0,1.81-.47,1.82-1.26,0-.64-.32-1.02-1.1-1.19l-1.51-.35c-1.61-.36-2.45-1.29-2.44-2.75.01-1.66,1.4-2.81,3.4-2.8Z"/>
          <path class="cls-1" d="m213.81,50.64c1.92.01,3.14,1.08,3.18,2.8h-1.66c-.03-.83-.62-1.31-1.55-1.32-1.03,0-1.69.48-1.7,1.28,0,.68.36,1.05,1.15,1.24l1.49.33c1.62.36,2.41,1.2,2.4,2.62-.01,1.77-1.4,2.9-3.49,2.89-2.03-.01-3.35-1.1-3.38-2.8h1.66c0,.82.65,1.3,1.72,1.31,1.1,0,1.81-.47,1.82-1.26,0-.64-.32-1.02-1.1-1.19l-1.5-.35c-1.61-.36-2.45-1.29-2.44-2.75.01-1.66,1.4-2.81,3.4-2.8Z"/>
          <path class="cls-1" d="m217.61,50.83h1.73s1.48,5.04,1.48,5.04c.14.52.28,1.06.42,1.89.16-.84.31-1.34.48-1.88l1.53-5.01h1.83s1.44,5.04,1.44,5.04c.15.53.29,1.08.44,1.89.19-.88.32-1.39.47-1.87l1.57-5.02h1.69s-2.95,9.5-2.95,9.5h-1.61s-1.98-6.94-1.98-6.94l-2.11,6.9h-1.64s-2.77-9.53-2.77-9.53Z"/>
          <path class="cls-1" d="m235.54,60.6c-2.72-.02-4.58-2.04-4.56-4.94.02-2.89,1.92-4.9,4.63-4.88,2.72.02,4.6,2.04,4.58,4.94-.02,2.89-1.93,4.9-4.66,4.88Zm.07-8.23c-1.74-.01-2.87,1.27-2.88,3.3-.01,2.03,1.1,3.32,2.84,3.33,1.74.01,2.87-1.29,2.88-3.3.01-2.03-1.1-3.32-2.84-3.33Z"/>
          <path class="cls-1" d="m241.68,60.49l.06-9.5,3.63.02c2.16.01,3.41,1.11,3.4,2.99,0,1.27-.61,2.18-1.73,2.63l1.78,3.91h-1.82s-1.59-3.57-1.59-3.57h-2.04s-.02,3.54-.02,3.54h-1.66Zm1.7-5.01h1.96c1.05.02,1.68-.54,1.69-1.5,0-.95-.61-1.49-1.67-1.49h-1.96s-.02,2.99-.02,2.99Z"/>
          <path class="cls-1" d="m250.33,60.54l.06-9.5,3.33.02c2.81.02,4.73,1.97,4.71,4.8-.02,2.79-1.93,4.72-4.68,4.7l-3.42-.02Zm1.71-7.96l-.04,6.44h1.6c1.9.02,3.06-1.19,3.07-3.17.01-2.01-1.16-3.25-3.12-3.26h-1.51Z"/>
        </g>
        <g>
          <path class="cls-1" d="m174.88,12.62c0-1.69.99-2.9,2.63-2.9.76,0,1.43.32,1.77.86v-3.44h1.33v8.19h-1.23l-.09-.85c-.33.63-1.03.99-1.86.99-1.57,0-2.55-1.15-2.55-2.84Zm4.39-.04c0-.98-.61-1.66-1.54-1.66s-1.51.69-1.51,1.66.57,1.65,1.51,1.65,1.54-.67,1.54-1.65Z"/>
          <path class="cls-1" d="m181.85,7.98c0-.45.36-.8.83-.8s.8.35.8.8-.36.81-.8.81-.83-.36-.83-.81Zm.15,1.9h1.34v5.43h-1.34v-5.43Z"/>
          <path class="cls-1" d="m184.42,12.62c0-1.69.99-2.9,2.63-2.9.76,0,1.43.32,1.77.86v-3.44h1.33v8.19h-1.23l-.09-.85c-.33.63-1.03.99-1.86.99-1.57,0-2.55-1.15-2.55-2.84Zm4.39-.04c0-.98-.61-1.66-1.54-1.66s-1.51.69-1.51,1.66.57,1.65,1.51,1.65,1.54-.67,1.54-1.65Z"/>
          <path class="cls-1" d="m192.4,13.67c.01.47.36.77.98.77s.97-.25.97-.65c0-.28-.14-.47-.63-.58l-.98-.23c-.98-.22-1.45-.68-1.45-1.55,0-1.07.9-1.71,2.16-1.71s2.05.7,2.06,1.76h-1.28c-.01-.46-.32-.76-.84-.76s-.84.24-.84.65c0,.31.24.51.7.62l.98.23c.91.21,1.38.63,1.38,1.46,0,1.1-.94,1.78-2.28,1.78s-2.21-.73-2.21-1.79h1.28Z"/>
          <path class="cls-1" d="m199.22,9.73c1.68,0,2.9,1.17,2.9,2.86s-1.22,2.86-2.9,2.86-2.9-1.17-2.9-2.86,1.22-2.86,2.9-2.86Zm0,4.52c.92,0,1.56-.67,1.56-1.66s-.64-1.66-1.56-1.66-1.56.67-1.56,1.66.64,1.66,1.56,1.66Z"/>
          <path class="cls-1" d="m203.19,15.32v-5.43h1.23l.11.64c.28-.45.83-.8,1.61-.8.83,0,1.4.41,1.68,1.03.27-.63.91-1.03,1.74-1.03,1.32,0,2.05.79,2.05,2.05v3.55h-1.33v-3.2c0-.78-.42-1.19-1.06-1.19s-1.14.42-1.14,1.31v3.08h-1.34v-3.21c0-.76-.41-1.17-1.04-1.17s-1.16.42-1.16,1.3v3.08h-1.34Z"/>
          <path class="cls-1" d="m212.61,12.6c0-1.71,1.11-2.88,2.71-2.88s2.66,1.09,2.66,2.78v.41h-4.09c.1.97.6,1.45,1.5,1.45.74,0,1.22-.29,1.38-.8h1.24c-.23,1.19-1.22,1.9-2.64,1.9-1.62,0-2.75-1.18-2.75-2.86Zm1.31-.54h2.73c0-.75-.52-1.24-1.32-1.24s-1.28.43-1.41,1.24Z"/>
          <path class="cls-1" d="m221.64,9.73c1.68,0,2.9,1.17,2.9,2.86s-1.22,2.86-2.9,2.86-2.9-1.17-2.9-2.86,1.22-2.86,2.9-2.86Zm0,4.52c.92,0,1.56-.67,1.56-1.66s-.64-1.66-1.56-1.66-1.56.67-1.56,1.66.64,1.66,1.56,1.66Z"/>
          <path class="cls-1" d="m225.61,15.32v-5.43h1.24l.11.7c.34-.55,1-.87,1.74-.87,1.36,0,2.07.85,2.07,2.25v3.34h-1.34v-3.03c0-.91-.45-1.35-1.14-1.35-.83,0-1.33.57-1.33,1.45v2.93h-1.34Z"/>
          <path class="cls-1" d="m231.77,12.6c0-1.71,1.11-2.88,2.71-2.88s2.66,1.09,2.66,2.78v.41h-4.09c.1.97.6,1.45,1.5,1.45.74,0,1.22-.29,1.38-.8h1.24c-.23,1.19-1.22,1.9-2.64,1.9-1.62,0-2.75-1.18-2.75-2.86Zm1.31-.54h2.73c0-.75-.52-1.24-1.32-1.24s-1.28.43-1.41,1.24Z"/>
          <path class="cls-1" d="m240.62,9.72c1.49,0,2.5.83,2.64,2.13h-1.34c-.15-.62-.61-.93-1.24-.93-.86,0-1.43.65-1.43,1.67s.53,1.66,1.39,1.66c.67,0,1.14-.33,1.29-.92h1.35c-.17,1.26-1.22,2.13-2.64,2.13-1.65,0-2.73-1.14-2.73-2.87s1.11-2.87,2.72-2.87Z"/>
          <path class="cls-1" d="m244.29,15.32V7.13h1.33v8.19h-1.33Z"/>
          <path class="cls-1" d="m249.61,9.73c1.68,0,2.9,1.17,2.9,2.86s-1.22,2.86-2.9,2.86-2.9-1.17-2.9-2.86,1.22-2.86,2.9-2.86Zm0,4.52c.92,0,1.56-.67,1.56-1.66s-.64-1.66-1.56-1.66-1.56.67-1.56,1.66.64,1.66,1.56,1.66Z"/>
          <path class="cls-1" d="m253.58,15.32v-5.43h1.24l.11.7c.34-.55,1-.87,1.74-.87,1.36,0,2.07.85,2.07,2.25v3.34h-1.34v-3.03c0-.91-.45-1.35-1.14-1.35-.83,0-1.33.57-1.33,1.45v2.93h-1.34Z"/>
          <path class="cls-1" d="m259.74,12.6c0-1.71,1.11-2.88,2.71-2.88s2.66,1.09,2.66,2.78v.41h-4.09c.1.97.6,1.45,1.5,1.45.74,0,1.22-.29,1.38-.8h1.24c-.23,1.19-1.22,1.9-2.64,1.9-1.62,0-2.75-1.18-2.75-2.86Zm1.31-.54h2.73c0-.75-.52-1.24-1.32-1.24s-1.28.43-1.41,1.24Z"/>
          <path class="cls-1" d="m265.87,14.58c0-.48.41-.88.89-.88s.89.4.89.88-.41.87-.89.87-.89-.4-.89-.87Z"/>
          <path class="cls-1" d="m269.06,15.32v-5.43h1.23l.11.64c.28-.45.83-.8,1.61-.8.83,0,1.4.41,1.68,1.03.27-.63.91-1.03,1.74-1.03,1.32,0,2.05.79,2.05,2.05v3.55h-1.33v-3.2c0-.78-.42-1.19-1.06-1.19s-1.14.42-1.14,1.31v3.08h-1.34v-3.21c0-.76-.41-1.17-1.04-1.17s-1.16.42-1.16,1.3v3.08h-1.34Z"/>
          <path class="cls-1" d="m278.48,12.6c0-1.71,1.11-2.88,2.71-2.88s2.66,1.09,2.66,2.78v.41h-4.09c.1.97.6,1.45,1.5,1.45.74,0,1.22-.29,1.38-.8h1.24c-.23,1.19-1.22,1.9-2.64,1.9-1.62,0-2.75-1.18-2.75-2.86Zm1.31-.54h2.73c0-.75-.52-1.24-1.32-1.24s-1.28.43-1.41,1.24Z"/>
        </g>
      </g>
      <g>
        <path class="cls-1" d="m156.54,5.57v-.03s.01-.01.02-.02c.05-.2.18-.26.34-.31h7.68c1.21.1,2.44.54,3.39,1.36h0s0,.01.02,0h0s0,0,0,0h0c2.94,2.56,2.54,7.25-.85,9.23-.88.51-1.88.79-2.9.78-2.43,0-4.86,0-7.29,0-.22,0-.35-.15-.42-.33V5.59s.02-.03,0-.02Zm6.19,2.17h-5.65q-.08,0-.08.08c.06,2.73-.12,5.68.06,8.3,2.7-.06,5.42.12,8.11-.07.82-.15,1.62-.49,2.28-1,1.72-1.29,2.49-3.68,1.81-5.72-.17-.55-.45-1.08-.79-1.54-1.88-.13-3.85,0-5.75-.04Zm4.47-.72s0,0,0,0c-.44-.35-.96-.62-1.5-.8-1.06-.14-2.16,0-3.23-.05-.4-.06-.64.47-.36.74.08.07.19.12.31.12,1.59,0,3.18,0,4.77,0Zm-9.28.01c.57,0,.57-.85,0-.86-.61,0-.53.89,0,.86Zm1.25,0c.56,0,.56-.86,0-.86-.55-.01-.58.85,0,.86Zm1.22,0c.59.02.6-.89-.02-.86-.51.04-.51.84.02.86Z"/>
        <path class="cls-2" d="m158.04,16.59c2.37-.05,4.76.1,7.13-.06.95-.15,1.85-.54,2.61-1.13,2.86-2.19,2.93-6.47.23-8.81,1.7.99,2.98,2.79,3.06,4.76v.5c-.17,2.91-2.58,5.67-5.55,5.92h-.09s-.04-.02-.03,0h-7.05c-.14-.06-.32-.18-.31-.39,0-.26,0-.52,0-.78Z"/>
        <path class="cls-1" d="m163.26,12.11c-1.74-.01-3.49.03-5.23-.01-.23-.07-.2-.37-.19-.56,0-.85,0-1.69,0-2.54-.01-.15.1-.3.26-.3,3.27-.02,6.54,0,9.81,0,.09,0,.2,0,.24.09.2.38.35.77.44,1.19.15.66.13,1.36-.04,2.01-.02.08-.09.13-.17.12-1.71,0-3.42,0-5.13,0Z"/>
        <path class="cls-1" d="m164.77,12.82c1.06,0,2.12,0,3.17,0,.13-.02.26.09.19.23-.62,1.13-1.76,1.97-3.03,2.21-.17,0-.34.08-.5.06-.04.04-.08,0-.12,0-.03.03-.07.02-.11.02-.95,0-1.89,0-2.84,0-.03,0-.05,0-.06-.04-.06-.04-.12-.08-.11-.16,0-.5,0-.99,0-1.49.05-.26-.16-.84.24-.84,1.05,0,2.11,0,3.16,0Z"/>
        <path class="cls-1" d="m159.23,15.35c-.39,0-.78,0-1.17,0-.15.01-.25-.13-.22-.27,0-.67,0-1.35,0-2.02-.01-.13.1-.24.23-.23.47,0,.94,0,1.42,0,.31,0,.62,0,.93,0,.15,0,.24.1.24.24-.13,2.61.57,2.28-1.42,2.29Z"/>
      </g>
    </g>
  </g>
</svg>