<?xml version="1.0" encoding="UTF-8"?>
<svg id="Laag_1" data-name="Laag 1" xmlns="http://www.w3.org/2000/svg" viewBox="0 0 204.47 176.76">
  <defs>
    <style>
      .cls-1, .cls-2 {
        fill-rule: evenodd;
      }

      .cls-1, .cls-2, .cls-3 {
        stroke-width: 0px;
      }

      .cls-1, .cls-3 {
        fill: #324E41;
      }

      .cls-2 {
        fill:rgb(92, 126, 110);
      }
    </style>
  </defs>
  <path class="cls-2" d="M121.32,176.76H26.67c-1.55,0-2.96-.64-3.99-1.66h0s0-.01,0-.01c-1.03-1.03-1.66-2.44-1.66-3.99v-10.91h88.22c22.03,0,42.05-9.01,56.57-23.52,14.52-14.51,23.52-34.54,23.52-56.57s-9.01-42.05-23.52-56.57c-1.8-1.8-3.69-3.52-5.66-5.15,86.29,52.34,32.02,158.38-38.81,158.38h0Z"/>
  <path class="cls-3" d="M5.66,0h103.56c22.03,0,42.05,9.01,56.57,23.52,14.52,14.52,23.52,34.54,23.52,56.57s-9.01,42.05-23.52,56.57c-14.52,14.52-34.54,23.52-56.57,23.52H5.66c-1.55,0-2.96-.64-3.99-1.66h0s0-.01,0-.01c-1.03-1.03-1.66-2.44-1.66-3.99V5.66c0-1.56.64-2.98,1.66-4h0c1.03-1.02,2.45-1.66,4-1.66h0ZM109.22,6.47H6.47v147.24h102.75c20.24,0,38.65-8.28,51.99-21.63,13.35-13.35,21.63-31.75,21.63-51.99s-8.28-38.65-21.63-51.99c-13.35-13.35-31.75-21.63-51.99-21.63h0Z"/>
  <path class="cls-1" d="M171.79,35.6H3.24V5.66c0-1.34,1.09-2.43,2.43-2.43h103.56c25.72,0,48.6,12.81,62.57,32.36h0ZM82.93,13.35h43.77c8.74,2.49,16.79,6.66,23.77,12.14h-67.54c-3.34,0-6.07-2.73-6.07-6.07h0c0-3.34,2.73-6.07,6.07-6.07h0ZM54.41,13.56c3.35,0,6.06,2.71,6.06,6.06s-2.71,6.06-6.06,6.06-6.06-2.71-6.06-6.06,2.71-6.06,6.06-6.06h0ZM36.91,13.56c3.35,0,6.06,2.71,6.06,6.06s-2.71,6.06-6.06,6.06-6.06-2.71-6.06-6.06,2.71-6.06,6.06-6.06h0ZM19.42,13.56c3.35,0,6.06,2.71,6.06,6.06s-2.71,6.06-6.06,6.06-6.06-2.71-6.06-6.06,2.71-6.06,6.06-6.06h0Z"/>
  <path class="cls-3" d="M22.08,48.95h139.49c.76,0,1.5.41,1.89,1.12,1.19,2.17,2.27,4.44,3.21,6.79.93,2.32,1.73,4.7,2.38,7.12.69,2.57,1.22,5.24,1.58,7.97.35,2.7.54,5.42.54,8.14h0c0,1.42-.05,2.86-.15,4.32-.1,1.43-.24,2.85-.44,4.26-.16,1.17-.35,2.31-.57,3.4-.22,1.12-.47,2.22-.74,3.3-.21.97-1.07,1.7-2.11,1.7H22.08c-.51,0-1.01-.11-1.47-.3-.4-.16-.77-.39-1.08-.67-.06-.05-.13-.11-.19-.17h0s0-.01,0-.01h-.01c-.35-.37-.63-.79-.83-1.26-.19-.47-.3-.97-.3-1.47v-40.37c0-.51.11-1.01.3-1.47.16-.4.39-.76.67-1.08.05-.07.11-.13.17-.19h0s0,0,0,0h.01c.35-.36.78-.64,1.25-.84.47-.19.97-.3,1.47-.3h0ZM19.17,50.28c.05-.06.1-.12.16-.17l-.16.17h0ZM70.86,107.2h90.55c.35,0,.71.09,1.05.28,1.04.58,1.41,1.89.83,2.92-2.58,4.64-5.74,8.92-9.36,12.75-3.63,3.83-7.74,7.21-12.22,10.04-4.9,3.09-10.26,5.52-15.95,7.16-5.52,1.59-11.33,2.45-17.3,2.45h-37.6c-.3,0-.6-.05-.88-.14-.07-.02-.13-.04-.2-.07-.25-.1-.49-.24-.7-.41-.09-.06-.17-.13-.24-.21h0s0,0,0,0l-.02-.02c-.26-.27-.47-.58-.61-.92h0s0,0,0,0c-.14-.34-.21-.7-.21-1.07v-29.86c0-.39.08-.76.22-1.1h0c.15-.35.36-.67.62-.92.2-.2.44-.38.71-.52.07-.04.14-.07.21-.1.34-.14.72-.22,1.1-.22h0ZM21.07,107.2h33.86c.39,0,.76.08,1.1.22h0c.36.15.67.36.92.62.2.2.38.44.52.71.04.07.07.14.1.21.14.34.22.72.22,1.1v29.86c0,.39-.08.76-.22,1.1h0c-.15.35-.36.67-.62.92-.19.19-.43.36-.69.5-.08.04-.16.08-.24.12-.34.14-.72.22-1.1.22H21.07c-.3,0-.6-.05-.88-.14-.07-.02-.13-.04-.2-.07-.25-.1-.49-.24-.7-.41-.09-.06-.17-.13-.24-.21h0s0,0,0,0l-.02-.02c-.26-.27-.47-.58-.61-.92h0s0,0,0,0c-.14-.34-.21-.7-.21-1.07v-29.86c0-.39.08-.76.22-1.1h0c.15-.35.36-.67.62-.92.2-.2.44-.38.71-.52.07-.04.14-.07.21-.1.34-.14.72-.22,1.1-.22h0Z"/>
</svg>