<?xml version="1.0" encoding="utf-8"?>
<!-- Generator: Adobe Illustrator 27.8.0, SVG Export Plug-In . SVG Version: 6.00 Build 0)  -->
<svg version="1.1" id="Layer_1" xmlns="http://www.w3.org/2000/svg" xmlns:xlink="http://www.w3.org/1999/xlink" x="0px" y="0px"
	 viewBox="0 0 2000 433.3" style="enable-background:new 0 0 2000 433.3;" xml:space="preserve">
<style type="text/css">
	.st0{opacity:0.8;}
	.st1{fill:#FFFFFF;}
	.st2{opacity:0.8;fill-rule:evenodd;clip-rule:evenodd;fill:#FFFFFF;}
</style>
<g id="New_Symbol_4">
	<g id="New_Symbol_3_2_">
		<g class="st0">
			<path class="st1" d="M542.8,294.1V354h-13.9v-59.9H542.8z"/>
			<path class="st1" d="M585.8,321.7V354h-12.5v-59.9h9.5l42.1,35.3c2.2,1.9,4.5,4,6.8,6.5l-0.6-10.4v-31.4h12.5V354h-9.5l-44-37
				l-0.9-0.8c-1.1-0.9-2.4-2.3-4.1-4l0.3,4.9l0.1,1.5C585.8,319.5,585.8,320.6,585.8,321.7z"/>
			<path class="st1" d="M724.4,305.1h-37.6v38h37.6v-13l13.9,2.9v6.9c0,5.4-1,9.1-3.1,11.1c-2.1,2-6,3.1-11.7,3.1h-35.7
				c-5.7,0-9.6-1-11.7-3c-2.1-2-3.1-5.7-3.1-11.2v-31.6c0-5.4,1-9.1,3.1-11.2c2.1-2,6-3,11.7-3h35.7c5.7,0,9.6,1,11.7,3
				c2.1,2,3.1,5.7,3.1,11.2v5.9l-13.9,2.2V305.1z"/>
			<path class="st1" d="M781,294.1V354h-13.9v-59.9H781z"/>
			<path class="st1" d="M811.6,294.1h38.5c11.4,0,20,2.8,26,8.4c5.5,5,8.2,12.1,8.2,21.2c0,6.5-1.3,11.9-4,16.1
				c-2.7,4.3-5.7,7.4-9.2,9.5c-5.2,3.1-13.4,4.6-24.6,4.6h-35V294.1z M825.6,343.1h20.8c8.3,0,14.4-1.7,18.1-5
				c3.7-3.3,5.6-8.1,5.6-14.4c0-12.5-6.6-18.7-19.7-18.6h-24.7V343.1z"/>
			<path class="st1" d="M909.8,294.1h61.3v10.2h-47.4v13.4h27.6v10.2h-27.6v15.2h47.9V354h-61.9V294.1z"/>
			<path class="st1" d="M1009.8,321.7V354h-12.5v-59.9h9.5l42.1,35.3c2.2,1.9,4.5,4,6.8,6.5l-0.6-10.4v-31.4h12.5V354h-9.5l-44-37
				l-0.9-0.8c-1.1-0.9-2.4-2.3-4.1-4l0.3,4.9l0.1,1.5C1009.8,319.5,1009.8,320.6,1009.8,321.7z"/>
			<path class="st1" d="M1126.1,305.1V354h-13.9v-48.9h-27.5v-10.9h68.9v10.9H1126.1z"/>
			<path class="st1" d="M1197.6,294.1h51.7c4.5,0,7.9,0.9,10.1,2.7c2.2,1.8,3.3,4.8,3.3,9V320c0,3.9-1,6.8-3.1,8.6
				s-5.5,2.7-10.3,2.8h-8.2l27.6,22.6h-19.9l-24.1-22.6h-13.1V354h-13.9V294.1z M1243.2,304.3h-31.7v16.8h31.9c1.6,0,2.9-0.3,3.9-1
				c1-0.7,1.5-1.9,1.5-3.7v-7.3c0-1.8-0.5-3-1.4-3.7S1245.1,304.4,1243.2,304.3z"/>
			<path class="st1" d="M1290.7,294.1h61.3v10.2h-47.4v13.4h27.6v10.2h-27.6v15.2h47.9V354h-61.9V294.1z"/>
			<path class="st1" d="M1430.2,305.1h-39.1v12.9h37.2c5.8,0,9.8,1,11.8,3c2.1,2,3.1,5.2,3.1,9.7v10.8c0,4.3-1.1,7.5-3.2,9.5
				c-2.1,2-5.5,3-10,3h-39.8c-5.1,0-8.7-1-10.8-3c-2.1-2-3.1-5.7-3.1-11.2v-1.2l12.3-2.5v7h42.3v-14.2h-38.7c-4.8,0-8.2-1-10.3-2.9
				c-2.1-2-3.1-5.7-3.1-11.2v-6.4c0-5.6,1-9.3,3.1-11.3s5.6-2.9,10.4-2.9h36.1c5.2,0,8.9,1,10.9,3c2,2,3.1,5.4,3.1,10.1v1.7
				l-12.3,2.9V305.1z"/>
			<path class="st1" d="M1472.1,294.1h51.8c4.3,0,7.5,0.9,9.7,2.7c2.2,1.8,3.3,4.8,3.3,9v13.4c0,4-1,6.9-3.1,8.8
				c-2.1,1.9-5.5,2.8-10.3,2.8H1486V354h-13.9V294.1z M1516.7,304.3H1486v16.1h30.6c2.3,0,3.9-0.3,4.9-1c0.9-0.7,1.4-1.9,1.4-3.7
				v-6.6c0-1.8-0.5-3-1.4-3.7S1519,304.4,1516.7,304.3z"/>
			<path class="st1" d="M1557,339.9v-31.6c0-5.4,1-9.1,3.1-11.2c2.1-2,6-3,11.7-3h44.1c5.7,0,9.6,1,11.7,3c2.1,2,3.1,5.7,3.1,11.2
				v31.6c0,5.4-1,9.1-3.1,11.1c-2.1,2-6,3.1-11.7,3.1h-44.1c-5.7,0-9.6-1-11.7-3.1C1558,348.9,1557,345.2,1557,339.9z M1570.9,343.1
				h45.9v-38h-45.9V343.1z"/>
			<path class="st1" d="M1672.5,321.7V354H1660v-59.9h9.5l42.1,35.3c2.2,1.9,4.5,4,6.8,6.5l-0.6-10.4v-31.4h12.5V354h-9.5l-44-37
				l-0.9-0.8c-1.1-0.9-2.4-2.3-4.1-4l0.3,4.9l0.1,1.5C1672.5,319.5,1672.5,320.6,1672.5,321.7z"/>
			<path class="st1" d="M1812.8,305.1h-39.1v12.9h37.2c5.8,0,9.8,1,11.8,3c2.1,2,3.1,5.2,3.1,9.7v10.8c0,4.3-1.1,7.5-3.2,9.5
				c-2.1,2-5.5,3-10,3h-39.8c-5.1,0-8.7-1-10.8-3c-2.1-2-3.1-5.7-3.1-11.2v-1.2l12.3-2.5v7h42.3v-14.2h-38.7c-4.8,0-8.2-1-10.3-2.9
				c-2.1-2-3.1-5.7-3.1-11.2v-6.4c0-5.6,1-9.3,3.1-11.3c2.1-2,5.6-2.9,10.4-2.9h36.1c5.2,0,8.9,1,10.9,3c2,2,3.1,5.4,3.1,10.1v1.7
				l-12.3,2.9V305.1z"/>
			<path class="st1" d="M1854.7,294.1h61.3v10.2h-47.4v13.4h27.6v10.2h-27.6v15.2h47.9V354h-61.9V294.1z"/>
		</g>
		<g>
			<path class="st1" d="M569.1,267.4h-40.6V93.6h40.6V267.4z"/>
			<path class="st1" d="M771.5,267.4H731L626.5,150.4v116.9H586V93.6h40.6L731,209.9V93.6h40.6V267.4z"/>
			<path class="st1" d="M989.5,93.6L901,267.4h-34.5L777.6,93.6h45.3l61.2,119l60.2-119H989.5z"/>
			<path class="st1" d="M1041.5,267.4H1001V93.6h40.6V267.4z"/>
			<path class="st1" d="M1249.7,267.4h-134.5c-15.8,0-29.2-5.2-40.2-15.7c-11-10.5-16.6-23.6-16.6-39.3v-63.7
				c0-15.7,5.5-28.8,16.6-39.3c11-10.5,24.4-15.7,40.2-15.7h134.5v40.6h-134.5c-10.8,0-16.2,4.8-16.2,14.5v63.6
				c0,9.7,5.4,14.5,16.2,14.5h134.5V267.4z"/>
			<path class="st1" d="M1464,134.2h-78.4v133.2H1345V134.2h-78.4V93.6H1464V134.2z"/>
			<path class="st1" d="M1692.1,213.6c0,14.6-4.6,27.3-13.9,37.9c-9.2,10.6-21.1,15.9-35.5,15.9h-114.9c-14.6,0-26.5-5.3-35.7-15.9
				c-9.1-10.6-13.7-23.2-13.7-37.9v-120h40.6v120c0,8.8,2.9,13.2,8.8,13.2h115.2c5.6,0,8.5-4.4,8.5-13.2v-120h40.6V213.6z"/>
			<path class="st1" d="M1916.5,213.8c0,14.6-4.4,27.1-13.2,37.4c-9.5,10.8-21.4,16.2-35.8,16.2h-150.1v-40.6h150.1
				c5.6,0,8.4-4.3,8.4-13c0-8.7-2.8-13-8.4-13h-109.2c-14.4,0-26.4-5.4-35.8-16.2c-9-10.1-13.5-22.5-13.5-37.2
				c0-14.6,4.6-27.3,13.9-37.9c9.2-10.6,21.1-15.9,35.5-15.9h150.1v40.6h-150.4c-5.6,0-8.5,4.4-8.5,13.2c0,8.6,2.8,12.8,8.5,12.8
				h109.4c14.4,0,26.4,5.4,35.9,16.2C1912.1,186.7,1916.5,199.2,1916.5,213.8z"/>
		</g>
		<g>
			<g>
				<path class="st1" d="M349.8,168.7c0-9.5-7.7-17.2-17.2-17.2c-9.5,0-17.2,7.7-17.2,17.2c0,5.3,2.4,10,6.1,13.1l-4.7,43.5h31.4
					l-4.7-43.5C347.4,178.7,349.8,174,349.8,168.7z"/>
			</g>
		</g>
		<path class="st2" d="M278.5,11.7L83.5,57.8l0.1,10.9c0.5,79.7,12.4,141.5,37.2,192.6c2.5,5.2,5.2,10.3,8,15.2
			c0.8,1.4,1.5,2.7,2.3,4c4.9,8.4,10.2,16.6,16,24.6c4.3,5.9,8.8,11.8,13.6,17.5c26.9,32.3,62.6,62.5,110.4,93.9l7.5,5l7.5-5
			c69.8-45.9,113.7-89.1,142.3-140.1c30.3-54,44.6-120,45.2-207.8l0.1-10.9L278.5,11.7z M404.4,263.1
			c-25.3,45.2-64.3,84.1-125.9,125.6c-39.5-26.6-69.7-52.2-93-79c-2.2-2.5-4.3-5-6.3-7.5l8.3-4.3l25.1-13.1l15.7-8.2
			c3.2,1.9,7,3,11,3c11.9,0,21.5-9.6,21.5-21.5c0-11.9-9.6-21.5-21.5-21.5c-11.6,0-21.1,9.3-21.5,20.8l-19.6,10.2l-24.7,12.9l-7.6,4
			c-3.8-5.5-7.3-11-10.6-16.6c-0.5-0.8-0.9-1.6-1.4-2.4l1.4-0.7l24.4-12.7l24.4-12.7l20.6-10.7l0,0c3.2,1.8,6.8,2.9,10.8,2.9
			c11.9,0,21.5-9.6,21.5-21.5c0-11.9-9.6-21.5-21.5-21.5c-11.7,0-21.2,9.4-21.5,21l0,0l-20.2,10.5l-24.3,12.7l-24.4,12.7l-1.2,0.6
			c-2.9-6.2-5.6-12.6-8.2-19.2l24.5-12.8l24.6-12.8l51.7-27c3.5,2.5,7.7,3.9,12.3,3.9c11.9,0,21.5-9.6,21.5-21.5
			c0-11.9-9.6-21.5-21.5-21.5c-11.1,0-20.2,8.4-21.4,19.2l-0.1,0.1L178.4,180l-24.9,13l-24.8,13c-10.8-35.9-16.5-77.4-17.5-126.5
			l167.4-39.6L446,79.4C444.4,156.9,431.1,215.5,404.4,263.1z"/>
		<g>
			<path class="st1" d="M278.5,68.1L139.2,101l0.9,11.7c1.7,23.2,4.8,44.5,9.3,64.1l21.2-11l4.1-2.1c-2.7-12.9-4.7-26.7-6.1-41.4
				l110.1-26h0l0,0v224.9c0,0,0,0,0,0c0,0,0,0,0,0c-15.7-12.1-29.3-24-41-36.1l-15.1,7.9l-10.2,5.3c15.9,17.2,35.1,34,58.2,51.1
				l8.1,6l8.1-6c44.1-32.6,74-64.3,93.8-99.7c20.4-36.5,32.4-81.3,36.5-137l0.9-11.7L278.5,68.1z"/>
		</g>
	</g>
</g>
</svg>
